<?xml version="1.0" encoding="UTF-8"?>
<!DOCTYPE svg PUBLIC "-//W3C//DTD SVG 1.1//EN" "http://www.w3.org/Graphics/SVG/1.1/DTD/svg11.dtd">
<!-- Creator: CorelDRAW 2019 (64-Bit) -->
<svg xmlns="http://www.w3.org/2000/svg" xml:space="preserve" width="166px" height="180px" version="1.1" style="shape-rendering:geometricPrecision; text-rendering:geometricPrecision; image-rendering:optimizeQuality; fill-rule:evenodd; clip-rule:evenodd"
viewBox="0 0 166 179.54"
 xmlns:xlink="http://www.w3.org/1999/xlink">
 <defs>
  <style type="text/css">
   <![CDATA[
    .str7 {stroke:#2B2A29;stroke-width:0.31;stroke-miterlimit:22.9256}
    .str9 {stroke:#2B2A29;stroke-width:0.09;stroke-miterlimit:22.9256}
    .str8 {stroke:#F2DFBD;stroke-width:0.62;stroke-miterlimit:22.9256}
    .str6 {stroke:#2B2A29;stroke-width:0.13;stroke-miterlimit:22.9256}
    .str3 {stroke:#2B2A29;stroke-width:0.11;stroke-miterlimit:22.9256}
    .str0 {stroke:#2B2A29;stroke-width:0.07;stroke-miterlimit:22.9256}
    .str1 {stroke:#FEFEFE;stroke-width:2.97;stroke-linejoin:round;stroke-miterlimit:22.9256}
    .str4 {stroke:#2B2A29;stroke-width:0.19;stroke-linecap:round;stroke-miterlimit:22.9256}
    .str5 {stroke:#F2DFBE;stroke-width:0.19;stroke-linecap:round;stroke-miterlimit:22.9256}
    .str2 {stroke:#FEFEFE;stroke-width:2.97;stroke-linecap:round;stroke-linejoin:round;stroke-miterlimit:22.9256}
    .str10 {stroke:#2B2A29;stroke-width:0.17;stroke-miterlimit:22.9256}
    .fil5 {fill:none}
    .fil1 {fill:#FEFEFE}
    .fil10 {fill:#FEFEFE}
    .fil2 {fill:#E3E3E3}
    .fil3 {fill:#2B2A29}
    .fil6 {fill:#DB1F24}
    .fil4 {fill:#F2DFBE}
    .fil7 {fill:#D5147C}
    .fil0 {fill:#0091D6}
    .fil8 {fill:#2B2A29;fill-rule:nonzero}
    .fil9 {fill:#D5147C;fill-rule:nonzero}
   ]]>
  </style>
 </defs>
 <g id="Слой_x0020_1">
  <metadata id="CorelCorpID_0Corel-Layer"/>
  <path class="fil0" d="M145.36 103.56c5.7,-3.01 15.21,-2.96 18.57,-1.61 -0.23,-3 -0.9,-6.03 -1.8,-8.49l-4.21 0.23c-8.31,1.86 -12.38,3.96 -12.2,6.3l-0.36 3.57z"/>
  <path class="fil0 str0" d="M145.36 103.56c5.7,-3.01 15.21,-2.96 18.57,-1.61 -0.23,-3 -0.9,-6.03 -1.8,-8.49l-4.21 0.23c-8.31,1.86 -12.38,3.96 -12.2,6.3l-0.36 3.57z"/>
  <path class="fil1" d="M145.74 98.82c5.2,-2.87 13.16,-4.73 16.8,-4.15 -1.16,-3.69 -2.83,-6.44 -4.41,-6.62 -4.77,-0.64 -10.95,2.46 -13.58,7.47l1.19 3.3z"/>
  <path class="fil1 str0" d="M145.74 98.82c5.2,-2.87 13.16,-4.73 16.8,-4.15 -1.16,-3.69 -2.83,-6.44 -4.41,-6.62 -4.77,-0.64 -10.95,2.46 -13.58,7.47l1.19 3.3z"/>
  <path class="fil0" d="M129.94 128.44c4.41,-0.05 12.69,2.74 14.34,4.63l0.14 -0.09c1.38,-1.54 2.7,-3.3 3.97,-5.29l-14.38 -3.83c-0.99,1.59 -2.35,3.11 -4.07,4.58z"/>
  <path class="fil0 str0" d="M129.94 128.44c4.41,-0.05 12.69,2.74 14.34,4.63l0.14 -0.09c1.38,-1.54 2.7,-3.3 3.97,-5.29l-14.38 -3.83c-0.99,1.59 -2.35,3.11 -4.07,4.58z"/>
  <path class="fil1" d="M147.88 128.47c0,0 0,-0.01 0,-0.01 -2.74,-2.18 -10.39,-3.26 -14.83,-3.24 1.13,-1.45 1.94,-2.95 2.44,-4.5 3.74,0.04 11.41,0.52 15.56,2.29 -1.02,1.99 -2.07,3.8 -3.17,5.46z"/>
  <path class="fil1 str0" d="M147.88 128.47c0,0 0,-0.01 0,-0.01 -2.74,-2.18 -10.39,-3.26 -14.83,-3.24 1.13,-1.45 1.94,-2.95 2.44,-4.5 3.74,0.04 11.41,0.52 15.56,2.29 -1.02,1.99 -2.07,3.8 -3.17,5.46z"/>
  <path class="fil0" d="M20.14 103.56c-5.62,-2.97 -14.93,-2.96 -18.41,-1.66 0.23,-2.49 0.76,-4.98 1.41,-7.15l4.44 -1.06c8.32,1.86 12.39,3.96 12.21,6.3l0.35 3.57z"/>
  <path class="fil0 str0" d="M20.14 103.56c-5.62,-2.97 -14.93,-2.96 -18.41,-1.66 0.23,-2.49 0.76,-4.98 1.41,-7.15l4.44 -1.06c8.32,1.86 12.39,3.96 12.21,6.3l0.35 3.57z"/>
  <path class="fil1" d="M19.76 98.82c-5.1,-2.82 -12.86,-4.66 -16.59,-4.18 1.1,-3.58 2.55,-6.27 3.62,-6.52 4.31,-1.32 11.53,2.39 14.17,7.4l-1.2 3.3z"/>
  <path class="fil1 str0" d="M19.76 98.82c-5.1,-2.82 -12.86,-4.66 -16.59,-4.18 1.1,-3.58 2.55,-6.27 3.62,-6.52 4.31,-1.32 11.53,2.39 14.17,7.4l-1.2 3.3z"/>
  <path class="fil0" d="M35.56 128.44c-4.4,-0.05 -12.69,2.74 -14.33,4.63l-0.14 -0.09c-1.38,-1.53 -2.7,-3.3 -3.97,-5.3l14.37 -3.82c1,1.59 2.36,3.11 4.07,4.58z"/>
  <path class="fil0 str0" d="M35.56 128.44c-4.4,-0.05 -12.69,2.74 -14.33,4.63l-0.14 -0.09c-1.38,-1.53 -2.7,-3.3 -3.97,-5.3l14.37 -3.82c1,1.59 2.36,3.11 4.07,4.58z"/>
  <path class="fil1" d="M17.62 128.46c2.74,-2.18 10.39,-3.26 14.84,-3.24 -1.13,-1.45 -1.95,-2.95 -2.45,-4.5 -3.73,0.04 -11.4,0.52 -15.55,2.29 1.01,1.99 2.07,3.8 3.16,5.45z"/>
  <path class="fil1 str0" d="M17.62 128.46c2.74,-2.18 10.39,-3.26 14.84,-3.24 -1.13,-1.45 -1.95,-2.95 -2.45,-4.5 -3.73,0.04 -11.4,0.52 -15.55,2.29 1.01,1.99 2.07,3.8 3.16,5.45z"/>
  <path class="fil2" d="M121.78 21.47c0.15,0.05 4.47,3.44 4.47,3.44 -1.86,1.77 -3.47,6.83 -1.62,8.73 -3.66,-0.73 -7.57,-2.59 -7.57,-6.42 0,-0.4 0.04,-0.81 0.12,-1.21 2.06,-2.11 4.51,-4.57 4.6,-4.54z"/>
  <polygon class="fil3" points="126.52,25.2 126.49,24.59 126.45,24.55 126.31,24.45 126.09,24.28 125.82,24.06 125.49,23.81 125.12,23.52 124.72,23.21 124.31,22.89 123.9,22.57 123.5,22.26 123.31,22.12 123.12,21.97 122.95,21.84 122.78,21.71 122.63,21.59 122.49,21.49 122.36,21.39 122.25,21.31 122.16,21.24 122.08,21.19 122.02,21.15 121.91,21.09 121.65,21.85 121.59,21.83 121.62,21.85 121.69,21.89 121.78,21.96 121.88,22.04 122,22.13 122.14,22.23 122.3,22.35 122.46,22.47 122.63,22.61 122.82,22.75 123.01,22.9 123.41,23.21 123.82,23.53 124.23,23.84 124.63,24.15 124.99,24.44 125.32,24.69 125.6,24.91 125.81,25.08 125.95,25.19 126,25.22 125.97,24.62 126.52,25.2 126.86,24.88 126.49,24.59 "/>
  <path class="fil3" d="M125.35 33.77l0.01 -0.08 -0.2 -0.12 -0.17 -0.14 -0.16 -0.15 -0.13 -0.18 -0.12 -0.2 -0.1 -0.22 -0.09 -0.23 -0.07 -0.25 -0.05 -0.27 -0.04 -0.29 -0.01 -0.29 -0.01 -0.31 0.01 -0.32 0.03 -0.32 0.04 -0.33 0.06 -0.33 0.07 -0.34 0.08 -0.34 0.1 -0.33 0.1 -0.34 0.12 -0.33 0.12 -0.32 0.14 -0.31 0.14 -0.31 0.15 -0.3 0.15 -0.28 0.16 -0.27 0.17 -0.25 0.16 -0.24 0.17 -0.21 0.17 -0.2 0.17 -0.17 -0.55 -0.58 -0.2 0.21 -0.2 0.23 -0.2 0.24 -0.19 0.27 -0.18 0.28 -0.18 0.29 -0.16 0.31 -0.17 0.32 -0.15 0.33 -0.14 0.34 -0.14 0.35 -0.12 0.35 -0.11 0.36 -0.1 0.36 -0.09 0.36 -0.08 0.37 -0.06 0.36 -0.05 0.37 -0.03 0.35 -0.01 0.36 0 0.35 0.03 0.34 0.04 0.33 0.06 0.33 0.09 0.31 0.11 0.3 0.13 0.29 0.14 0.23c0.35,0.08 0.71,0.15 1.06,0.21l0.01 -0.06 0.02 0.07c0.08,0.01 0.16,0.03 0.25,0.04z"/>
  <path class="fil3" d="M125.1 33.73l-0.02 -0.07 -0.17 0.03c0.06,0.02 0.12,0.03 0.19,0.04z"/>
  <path class="fil3" d="M121.91 21.09l-0.01 0 -0.38 0.07 -0.1 0.08 -0.12 0.1 -0.15 0.14 -0.18 0.16 -0.2 0.19 -0.22 0.22 -0.25 0.25 -0.27 0.27 -0.29 0.28 -0.3 0.3 -0.32 0.32 -0.32 0.32 -0.34 0.34 -0.34 0.34 -0.34 0.35 -0.34 0.35 -0.06 0.06c-0.15,0.48 -0.25,0.97 -0.29,1.45l0.26 -0.27 0.33 -0.34 0.33 -0.34 0.34 -0.35 0.35 -0.34 0.33 -0.34 0.33 -0.34 0.33 -0.33 0.31 -0.31 0.3 -0.3 0.29 -0.29 0.27 -0.26 0.25 -0.24 0.22 -0.22 0.2 -0.19 0.17 -0.16 0.13 -0.12 0.1 -0.09 0.04 -0.03 -0.32 0.03 0 0 0.26 -0.76z"/>
  <path class="fil2" d="M43.2 21.47c-0.15,0.05 -4.47,3.44 -4.47,3.44 1.86,1.77 3.46,6.83 1.62,8.73 3.65,-0.73 7.56,-2.59 7.56,-6.42 0,-0.4 -0.04,-0.81 -0.12,-1.21 -2.06,-2.11 -4.51,-4.57 -4.59,-4.54z"/>
  <polygon class="fil3" points="39,24.62 38.97,25.22 39.02,25.19 39.16,25.08 39.37,24.91 39.65,24.69 39.98,24.44 40.35,24.15 40.74,23.84 41.15,23.53 41.56,23.21 41.96,22.9 42.16,22.75 42.34,22.61 42.51,22.47 42.68,22.35 42.83,22.23 42.97,22.13 43.1,22.04 43.2,21.96 43.29,21.89 43.35,21.85 43.38,21.83 43.32,21.85 43.07,21.09 42.96,21.15 42.89,21.19 42.82,21.24 42.73,21.31 42.61,21.39 42.49,21.49 42.35,21.59 42.19,21.71 42.03,21.84 41.85,21.97 41.67,22.12 41.47,22.26 41.07,22.57 40.66,22.89 40.25,23.21 39.86,23.52 39.49,23.81 39.16,24.06 38.88,24.28 38.67,24.45 38.53,24.55 38.48,24.59 38.45,25.2 38.48,24.59 38.12,24.88 38.45,25.2 "/>
  <path class="fil3" d="M39.9 33.66l0 0.06c0.35,-0.06 0.71,-0.13 1.06,-0.21l0.14 -0.23 0.14 -0.29 0.11 -0.3 0.08 -0.31 0.07 -0.33 0.04 -0.33 0.02 -0.34 0.01 -0.35 -0.02 -0.36 -0.03 -0.35 -0.05 -0.37 -0.06 -0.36 -0.07 -0.37 -0.09 -0.36 -0.1 -0.36 -0.11 -0.36 -0.13 -0.35 -0.13 -0.35 -0.15 -0.34 -0.15 -0.33 -0.16 -0.32 -0.17 -0.31 -0.17 -0.29 -0.19 -0.28 -0.18 -0.27 -0.2 -0.24 -0.2 -0.23 -0.21 -0.21 -0.55 0.58 0.17 0.17 0.17 0.2 0.17 0.21 0.17 0.24 0.16 0.25 0.16 0.27 0.16 0.28 0.15 0.3 0.14 0.31 0.13 0.31 0.13 0.32 0.11 0.33 0.11 0.34 0.09 0.33 0.09 0.34 0.07 0.34 0.05 0.33 0.04 0.33 0.03 0.32 0.01 0.32 0 0.31 -0.02 0.29 -0.03 0.29 -0.06 0.27 -0.07 0.25 -0.08 0.23 -0.11 0.22 -0.11 0.2 -0.14 0.18 -0.15 0.15 -0.18 0.14 -0.19 0.12 0.01 0.08c0.08,-0.01 0.17,-0.03 0.25,-0.04l0.02 -0.07z"/>
  <path class="fil3" d="M40.07 33.69l-0.17 -0.03 -0.02 0.07c0.06,-0.01 0.13,-0.02 0.19,-0.04z"/>
  <path class="fil3" d="M43.32 21.85l0 0 -0.32 -0.03 0.05 0.03 0.09 0.09 0.14 0.12 0.17 0.16 0.2 0.19 0.22 0.22 0.25 0.24 0.26 0.26 0.29 0.29 0.3 0.3 0.32 0.31 0.32 0.33 0.33 0.34 0.34 0.34 0.34 0.34 0.34 0.35 0.34 0.34 0.33 0.34 0.26 0.27c-0.04,-0.48 -0.14,-0.96 -0.29,-1.44l-0.07 -0.07 -0.34 -0.35 -0.34 -0.35 -0.34 -0.34 -0.33 -0.34 -0.33 -0.32 -0.31 -0.32 -0.3 -0.3 -0.29 -0.28 -0.27 -0.27 -0.25 -0.25 -0.23 -0.22 -0.2 -0.19 -0.17 -0.16 -0.15 -0.14 -0.12 -0.1 -0.1 -0.08 -0.39 -0.07 0 0 0.25 0.76z"/>
  <path class="fil0" d="M134.37 153.34c-6.85,-1.62 -14.24,-2.11 -20.9,-2.12 -2.09,1.34 -0.35,2.4 0.17,5.47 2.24,-1.18 14.2,1.49 17.83,3.2l2.9 -6.55z"/>
  <path class="fil0 str0" d="M134.37 153.34c-6.85,-1.62 -14.24,-2.11 -20.9,-2.12 -2.09,1.34 -0.35,2.4 0.17,5.47 2.24,-1.18 14.2,1.49 17.83,3.2l2.9 -6.55z"/>
  <path class="fil1" d="M115.57 148.41l-1.38 3.71c3.3,-1 16.03,0.7 19.66,2.41l2.13 -4.81c-3.5,-1.33 -10.23,-2.8 -17.5,-2.98l-2.91 1.67z"/>
  <path class="fil1 str0" d="M115.57 148.41l-1.38 3.71c3.3,-1 16.03,0.7 19.66,2.41l2.13 -4.81c-3.5,-1.33 -10.23,-2.8 -17.5,-2.98l-2.91 1.67z"/>
  <path class="fil0" d="M26.61 153.34c6.86,-1.62 14.25,-2.11 20.9,-2.12 2.1,1.34 0.36,2.4 -0.16,5.47 -2.24,-1.18 -14.2,1.49 -17.84,3.2l-2.9 -6.55z"/>
  <path class="fil0 str0" d="M26.61 153.34c6.86,-1.62 14.25,-2.11 20.9,-2.12 2.1,1.34 0.36,2.4 -0.16,5.47 -2.24,-1.18 -14.2,1.49 -17.84,3.2l-2.9 -6.55z"/>
  <path class="fil1" d="M45.42 148.41l1.38 3.71c-3.3,-1 -16.03,0.7 -19.66,2.41l-2.13 -4.81c3.5,-1.33 10.23,-2.8 17.49,-2.98l2.92 1.67z"/>
  <path class="fil1 str0" d="M45.42 148.41l1.38 3.71c-3.3,-1 -16.03,0.7 -19.66,2.41l-2.13 -4.81c3.5,-1.33 10.23,-2.8 17.49,-2.98l2.92 1.67z"/>
  <path class="fil0" d="M115.3 158.36l0.33 1.9c-18.93,10.48 -42.71,15.87 -68.91,-0.39l4.98 -13.59 60.08 0 3.52 12.08z"/>
  <path class="fil0 str0" d="M115.3 158.36l0.33 1.9c-18.93,10.48 -42.71,15.87 -68.91,-0.39l4.98 -13.59 60.08 0 3.52 12.08z"/>
  <path class="fil1" d="M113.85 153.39l0.11 1.25c-24.16,12.01 -41.07,13.07 -65.32,-0.02l3.06 -8.34 60.08 0 2.07 7.11z"/>
  <path class="fil1 str0" d="M113.85 153.39l0.11 1.25c-24.16,12.01 -41.07,13.07 -65.32,-0.02l3.06 -8.34 60.08 0 2.07 7.11z"/>
  <path class="fil1" d="M17.08 84.73c0,-36.24 29.37,-65.61 65.6,-65.61 36.23,0 65.6,29.37 65.6,65.61 0,16.07 -5.78,30.79 -15.37,42.2 -12.04,14.31 -50.23,9.38 -50.23,23.41 -36.05,0 -65.6,-29.14 -65.6,-65.61z"/>
  <path class="fil4" d="M17.08 84.73l2.68 0 0.07 -3.25 0.24 -3.2 0.41 -3.15 0.55 -3.09 0.7 -3.05 0.85 -2.99 0.99 -2.92 1.12 -2.85 1.26 -2.78 1.39 -2.72 1.52 -2.64 1.64 -2.55 1.76 -2.46 1.86 -2.39 1.98 -2.27 2.09 -2.19 2.18 -2.09 2.28 -1.97 2.38 -1.87 2.47 -1.75 2.54 -1.65 2.65 -1.51 2.71 -1.39 2.78 -1.26 2.85 -1.12 2.94 -0.99 2.97 -0.86 3.05 -0.7 3.1 -0.54 3.14 -0.41 3.2 -0.24 3.25 -0.08 0 0 0 -2.68c-36.23,0 -65.6,29.37 -65.6,65.61z"/>
  <path class="fil4" d="M82.68 19.12l0 2.68 3.25 0.08 3.2 0.24 3.14 0.41 3.1 0.54 3.05 0.7 2.97 0.86 2.94 0.99 2.85 1.12 2.78 1.26 2.71 1.39 2.65 1.51 2.54 1.65 2.47 1.75 2.38 1.87 2.28 1.97 2.18 2.09 2.09 2.19 1.98 2.27 1.86 2.39 1.76 2.46 1.64 2.55 1.52 2.64 1.39 2.72 1.26 2.78 1.12 2.85 0.99 2.92 0.85 2.99 0.7 3.05 0.55 3.09 0.4 3.15 0.25 3.2 0.07 3.25 0 0 2.68 0c0,-36.24 -29.37,-65.61 -65.6,-65.61z"/>
  <path class="fil4" d="M148.28 84.73l-2.68 0 0 1.45 -0.05 1.43 -0.09 1.42 -0.1 1.43 -0.15 1.4 -0.17 1.4 -0.2 1.39 -0.24 1.38 -0.26 1.36 -0.3 1.36 -0.32 1.34 -0.35 1.34 -0.38 1.32 -0.41 1.32 -0.43 1.3 -0.46 1.28 -0.49 1.27 -0.51 1.26 -0.55 1.25 -0.57 1.23 -0.59 1.22 -0.62 1.2 -0.64 1.18 -0.68 1.17 -0.69 1.17 -0.71 1.13 -0.74 1.12 -0.76 1.11 -0.79 1.09 -0.8 1.07 -0.84 1.06 -0.84 1.03 0 0 2.04 1.72c9.59,-11.41 15.37,-26.13 15.37,-42.2z"/>
  <path class="fil4" d="M132.91 126.93l-2.04 -1.72 -1.03 1.09 -1.15 1.01 -1.3 0.95 -1.42 0.89 -1.56 0.83 -1.66 0.76 -1.76 0.72 -1.85 0.66 -1.93 0.6 -1.99 0.58 -2.03 0.52 -2.07 0.5 -2.09 0.48 -2.1 0.44 -2.11 0.45 -2.08 0.43 -2.07 0.44 -2.03 0.45 -1.99 0.46 -1.93 0.48 -1.87 0.52 -1.79 0.57 -1.72 0.62 -1.63 0.69 -1.52 0.77 -1.41 0.88 -1.31 0.99 -1.16 1.15 -0.96 1.34 -0.74 1.49 -0.46 1.64 -0.15 1.67c0.02,0 0.04,0 0.06,0l2.62 -2.62 0 2.68c0,-14.03 38.19,-9.1 50.23,-23.41z"/>
  <path class="fil4" d="M82.68 150.34l0 -2.68 -3.24 -0.08 -3.18 -0.24 -3.13 -0.4 -3.09 -0.54 -3.04 -0.71 -2.98 -0.84 -2.91 -0.98 -2.85 -1.12 -2.79 -1.25 -2.71 -1.39 -2.64 -1.51 -2.55 -1.63 -2.47 -1.74 -2.38 -1.86 -2.29 -1.97 -2.19 -2.09 -2.08 -2.18 -1.98 -2.28 -1.88 -2.37 -1.76 -2.46 -1.64 -2.56 -1.52 -2.63 -1.4 -2.72 -1.26 -2.78 -1.13 -2.87 -0.99 -2.93 -0.86 -2.99 -0.71 -3.06 -0.54 -3.11 -0.41 -3.16 -0.25 -3.21 -0.07 -3.27 0 0 -2.68 0c0,36.47 29.55,65.61 65.6,65.61z"/>
  <path class="fil2" d="M63.75 10.33c0,-1.74 1.41,-3.15 3.15,-3.15 0.14,0 0.27,0.01 0.4,0.03l4.56 0 0 2.29c-0.17,0.37 -3.08,3.98 -4.96,3.98 -1.74,0 -3.15,-1.41 -3.15,-3.15z"/>
  <polygon class="fil3" points="66.9,6.78 66.9,6.78 66.72,6.79 66.54,6.8 66.36,6.82 66.19,6.85 66.02,6.89 65.85,6.94 65.68,7 65.52,7.06 65.36,7.13 65.21,7.21 65.06,7.3 64.92,7.39 64.78,7.49 64.64,7.59 64.51,7.71 64.39,7.82 64.27,7.95 64.16,8.08 64.06,8.21 63.96,8.35 63.87,8.49 63.78,8.64 63.7,8.79 63.63,8.95 63.57,9.11 63.51,9.28 63.46,9.45 63.42,9.62 63.39,9.79 63.37,9.97 63.35,10.15 63.35,10.33 64.16,10.33 64.16,10.19 64.17,10.05 64.19,9.91 64.21,9.78 64.24,9.65 64.28,9.52 64.32,9.39 64.37,9.26 64.42,9.14 64.49,9.02 64.55,8.91 64.62,8.8 64.7,8.69 64.78,8.58 64.87,8.49 64.96,8.39 65.06,8.3 65.15,8.21 65.26,8.13 65.37,8.05 65.48,7.98 65.59,7.92 65.71,7.86 65.83,7.8 65.96,7.75 66.09,7.71 66.22,7.67 66.35,7.64 66.48,7.62 66.62,7.6 66.76,7.59 66.9,7.59 66.9,7.59 "/>
  <polygon class="fil3" points="67.3,6.81 67.35,6.81 67.32,6.8 67.29,6.8 67.26,6.8 67.24,6.8 67.21,6.79 67.18,6.79 67.15,6.79 67.13,6.79 67.1,6.79 67.07,6.79 67.04,6.78 67.02,6.78 66.98,6.78 66.96,6.78 66.93,6.78 66.9,6.78 66.9,7.59 66.92,7.59 66.94,7.59 66.97,7.59 66.99,7.59 67.01,7.59 67.04,7.59 67.05,7.59 67.08,7.59 67.1,7.59 67.12,7.6 67.14,7.6 67.16,7.6 67.19,7.6 67.2,7.61 67.23,7.61 67.25,7.61 67.3,7.61 "/>
  <polygon class="fil3" points="72.26,7.21 71.86,6.81 67.3,6.81 67.3,7.61 71.86,7.61 72.26,7.21 72.26,7.21 72.26,6.81 71.86,6.81 "/>
  <polygon class="fil3" points="72.23,9.67 72.26,9.5 72.26,7.21 71.46,7.21 71.46,9.5 "/>
  <polygon class="fil3" points="66.9,13.88 66.9,13.88 67.13,13.87 67.35,13.83 67.57,13.78 67.79,13.7 68.01,13.61 68.23,13.5 68.45,13.38 68.66,13.25 68.88,13.11 69.09,12.96 69.3,12.8 69.51,12.63 69.71,12.46 69.92,12.28 70.11,12.1 70.3,11.92 70.49,11.74 70.67,11.55 70.84,11.37 71.01,11.2 71.17,11.02 71.32,10.85 71.46,10.69 71.59,10.54 71.71,10.39 71.82,10.26 71.91,10.13 72,10.02 72.07,9.92 72.13,9.83 72.18,9.75 72.23,9.67 71.5,9.34 71.49,9.34 71.46,9.39 71.42,9.45 71.36,9.54 71.28,9.64 71.19,9.76 71.09,9.89 70.97,10.02 70.85,10.17 70.71,10.32 70.57,10.49 70.42,10.65 70.26,10.82 70.1,11 69.92,11.17 69.75,11.34 69.56,11.51 69.38,11.68 69.19,11.85 69,12.01 68.81,12.17 68.62,12.31 68.42,12.45 68.23,12.57 68.04,12.69 67.86,12.79 67.68,12.88 67.51,12.95 67.34,13.01 67.18,13.05 67.04,13.07 66.9,13.08 66.9,13.08 "/>
  <polygon class="fil3" points="63.35,10.33 63.35,10.33 63.35,10.51 63.37,10.7 63.39,10.87 63.42,11.05 63.46,11.22 63.51,11.39 63.57,11.55 63.63,11.71 63.7,11.87 63.78,12.03 63.87,12.17 63.96,12.32 64.06,12.46 64.16,12.59 64.27,12.72 64.39,12.84 64.51,12.96 64.64,13.07 64.78,13.18 64.92,13.28 65.06,13.37 65.21,13.45 65.36,13.53 65.52,13.61 65.68,13.67 65.85,13.72 66.02,13.77 66.19,13.81 66.36,13.84 66.54,13.87 66.72,13.88 66.9,13.88 66.9,13.08 66.76,13.08 66.62,13.07 66.48,13.05 66.35,13.02 66.22,12.99 66.09,12.96 65.96,12.91 65.83,12.86 65.71,12.81 65.59,12.75 65.48,12.68 65.37,12.61 65.26,12.54 65.15,12.45 65.06,12.37 64.96,12.28 64.87,12.18 64.78,12.08 64.7,11.98 64.62,11.87 64.55,11.76 64.49,11.64 64.42,11.52 64.37,11.4 64.32,11.28 64.28,11.15 64.24,11.02 64.21,10.89 64.19,10.75 64.17,10.61 64.16,10.48 64.16,10.33 64.16,10.33 "/>
  <path class="fil2" d="M102.12 10.33c0,-1.74 -1.41,-3.15 -3.15,-3.15 -0.13,0 -0.26,0.01 -0.39,0.03l-4.57 0 0 2.29c0.17,0.37 3.08,3.98 4.96,3.98 1.74,0 3.15,-1.41 3.15,-3.15z"/>
  <polygon class="fil3" points="98.97,7.59 98.97,7.59 99.12,7.59 99.25,7.6 99.39,7.62 99.53,7.64 99.66,7.67 99.79,7.71 99.92,7.75 100.04,7.8 100.16,7.86 100.28,7.92 100.4,7.98 100.51,8.05 100.62,8.13 100.72,8.21 100.82,8.3 100.92,8.39 101.01,8.49 101.09,8.58 101.17,8.69 101.25,8.8 101.32,8.91 101.39,9.02 101.45,9.14 101.5,9.26 101.55,9.39 101.6,9.52 101.63,9.65 101.66,9.78 101.69,9.91 101.71,10.05 101.72,10.19 101.72,10.33 102.52,10.33 102.52,10.15 102.51,9.97 102.48,9.79 102.45,9.62 102.41,9.45 102.36,9.28 102.31,9.11 102.25,8.95 102.17,8.79 102.09,8.64 102.01,8.49 101.92,8.35 101.82,8.21 101.71,8.08 101.6,7.95 101.48,7.82 101.36,7.71 101.23,7.59 101.1,7.49 100.96,7.39 100.81,7.3 100.66,7.21 100.51,7.13 100.35,7.06 100.19,7 100.03,6.94 99.86,6.89 99.69,6.85 99.51,6.82 99.34,6.8 99.16,6.79 98.97,6.78 98.97,6.78 "/>
  <polygon class="fil3" points="98.58,7.61 98.63,7.61 98.65,7.61 98.67,7.61 98.69,7.6 98.71,7.6 98.74,7.6 98.76,7.6 98.78,7.59 98.8,7.59 98.82,7.59 98.84,7.59 98.87,7.59 98.89,7.59 98.91,7.59 98.93,7.59 98.95,7.59 98.97,7.59 98.97,6.78 98.94,6.78 98.92,6.78 98.89,6.78 98.86,6.78 98.83,6.78 98.81,6.79 98.78,6.79 98.75,6.79 98.72,6.79 98.69,6.79 98.66,6.79 98.64,6.8 98.61,6.8 98.58,6.8 98.56,6.8 98.53,6.81 98.58,6.81 "/>
  <polygon class="fil3" points="93.61,7.21 94.01,7.61 98.58,7.61 98.58,6.81 94.01,6.81 93.61,7.21 94.01,6.81 93.61,6.81 "/>
  <polygon class="fil3" points="93.65,9.67 94.42,9.5 94.42,7.21 93.61,7.21 93.61,9.5 "/>
  <polygon class="fil3" points="98.97,13.08 98.97,13.08 98.84,13.07 98.69,13.05 98.53,13.01 98.37,12.95 98.2,12.88 98.02,12.79 97.83,12.69 97.64,12.57 97.45,12.45 97.26,12.31 97.07,12.17 96.88,12.01 96.69,11.85 96.5,11.68 96.31,11.51 96.13,11.34 95.95,11.17 95.78,11 95.62,10.82 95.46,10.65 95.3,10.49 95.16,10.32 95.03,10.17 94.9,10.02 94.79,9.89 94.69,9.76 94.6,9.64 94.52,9.54 94.46,9.45 94.41,9.39 94.38,9.34 94.38,9.34 93.65,9.67 93.69,9.75 93.74,9.83 93.8,9.92 93.88,10.02 93.96,10.13 94.06,10.26 94.17,10.39 94.29,10.54 94.42,10.69 94.56,10.85 94.71,11.02 94.87,11.2 95.03,11.37 95.21,11.55 95.39,11.74 95.57,11.92 95.77,12.1 95.96,12.28 96.16,12.46 96.37,12.63 96.58,12.8 96.79,12.96 97,13.11 97.21,13.25 97.43,13.38 97.65,13.5 97.87,13.61 98.08,13.7 98.31,13.78 98.53,13.83 98.75,13.87 98.97,13.88 98.97,13.88 "/>
  <polygon class="fil3" points="101.72,10.33 101.72,10.33 101.72,10.48 101.71,10.61 101.69,10.75 101.66,10.89 101.63,11.02 101.6,11.15 101.55,11.28 101.5,11.4 101.45,11.52 101.39,11.64 101.32,11.76 101.25,11.87 101.17,11.98 101.09,12.08 101.01,12.18 100.92,12.28 100.82,12.37 100.72,12.45 100.62,12.54 100.51,12.61 100.4,12.68 100.28,12.75 100.16,12.81 100.04,12.86 99.92,12.91 99.79,12.96 99.66,12.99 99.53,13.02 99.39,13.05 99.25,13.07 99.12,13.08 98.97,13.08 98.97,13.88 99.15,13.88 99.34,13.87 99.51,13.84 99.69,13.81 99.86,13.77 100.03,13.72 100.19,13.67 100.35,13.61 100.51,13.53 100.67,13.45 100.81,13.37 100.96,13.28 101.1,13.18 101.23,13.07 101.36,12.96 101.48,12.84 101.6,12.72 101.71,12.59 101.82,12.46 101.92,12.32 102.01,12.17 102.09,12.03 102.17,11.87 102.25,11.71 102.31,11.55 102.36,11.39 102.41,11.22 102.45,11.05 102.48,10.87 102.51,10.7 102.52,10.51 102.52,10.33 102.52,10.33 "/>
  <path class="fil4" d="M64.4 4.67c5.64,-0.67 8.77,6.97 2.76,8.69 10.66,-2.45 21.21,-2.41 31.64,0.12 -5.31,-1.32 -3.71,-9.2 5.55,-7.64 -4.69,-2.18 -12.19,-3.28 -22.51,-3.27 -7.54,-0.15 -13.35,0.55 -17.44,2.1z"/>
  <path class="fil3" d="M67.07 12.97l0.2 0.78 0.57 -0.19 0.53 -0.23 0.47 -0.27 0.43 -0.3 0.37 -0.32 0.32 -0.36 0.27 -0.38 0.21 -0.39 0.17 -0.42 0.12 -0.42 0.06 -0.43 0.03 -0.44 -0.02 -0.43 -0.07 -0.44 -0.1 -0.43 -0.15 -0.43 -0.18 -0.41 -0.21 -0.4 -0.25 -0.39 -0.29 -0.36 -0.31 -0.35 -0.35 -0.33 -0.37 -0.3 -0.41 -0.26 -0.43 -0.24 -0.45 -0.2 -0.48 -0.17 -0.51 -0.12 -0.52 -0.08 -0.11 -0.01c-0.52,0.17 -1.01,0.34 -1.48,0.53l0.05 0.33 0.5 -0.06 0.49 -0.02 0.47 0.03 0.45 0.07 0.43 0.1 0.41 0.14 0.4 0.18 0.37 0.2 0.34 0.24 0.33 0.25 0.3 0.28 0.27 0.3 0.24 0.32 0.22 0.33 0.18 0.34 0.16 0.35 0.12 0.36 0.08 0.36 0.06 0.36 0.01 0.36 -0.01 0.36 -0.06 0.34 -0.09 0.34 -0.13 0.33 -0.18 0.31 -0.21 0.3 -0.25 0.29 -0.31 0.26 -0.35 0.25 -0.4 0.23 -0.46 0.2 -0.51 0.17 0.2 0.77 -0.18 -0.78z"/>
  <polygon class="fil3" points="98.71,13.87 98.9,13.09 97.91,12.86 96.93,12.64 95.94,12.44 94.96,12.26 93.97,12.08 92.98,11.92 91.99,11.78 91.01,11.65 90.02,11.54 89.03,11.44 88.03,11.35 87.04,11.28 86.05,11.23 85.06,11.19 84.06,11.16 83.07,11.15 82.08,11.15 81.08,11.17 80.08,11.21 79.08,11.25 78.09,11.32 77.09,11.39 76.09,11.48 75.09,11.59 74.09,11.71 73.09,11.85 72.09,12 71.08,12.16 70.08,12.34 69.08,12.54 68.07,12.75 67.07,12.97 67.25,13.75 68.24,13.53 69.23,13.33 70.22,13.13 71.22,12.95 72.21,12.79 73.2,12.64 74.19,12.51 75.18,12.39 76.17,12.28 77.15,12.19 78.14,12.12 79.13,12.05 80.11,12.01 81.1,11.97 82.08,11.96 83.07,11.95 84.05,11.97 85.03,11.99 86.01,12.03 86.99,12.08 87.97,12.15 88.95,12.24 89.93,12.34 90.91,12.45 91.89,12.57 92.86,12.72 93.84,12.87 94.82,13.04 95.79,13.23 96.76,13.43 97.74,13.64 98.71,13.87 98.9,13.09 "/>
  <path class="fil3" d="M104.04 5.86l0.12 -0.1c-0.37,-0.17 -0.75,-0.33 -1.15,-0.48l-0.21 -0.02 -0.79 -0.02 -0.74 0.02 -0.7 0.07 -0.66 0.12 -0.61 0.16 -0.58 0.19 -0.52 0.23 -0.49 0.26 -0.44 0.3 -0.39 0.31 -0.35 0.35 -0.3 0.36 -0.26 0.38 -0.21 0.4 -0.17 0.41 -0.12 0.42 -0.07 0.42 -0.02 0.42 0.02 0.42 0.08 0.41 0.12 0.4 0.16 0.39 0.21 0.37 0.27 0.35 0.3 0.33 0.35 0.3 0.39 0.26 0.44 0.23 0.47 0.2 0.52 0.15 0.19 -0.78 -0.44 -0.13 -0.4 -0.16 -0.37 -0.2 -0.32 -0.21 -0.28 -0.24 -0.24 -0.26 -0.2 -0.28 -0.17 -0.29 -0.13 -0.3 -0.09 -0.31 -0.06 -0.33 -0.02 -0.32 0.02 -0.34 0.06 -0.33 0.09 -0.33 0.13 -0.33 0.17 -0.32 0.22 -0.31 0.25 -0.31 0.29 -0.29 0.34 -0.27 0.37 -0.25 0.43 -0.23 0.46 -0.2 0.51 -0.17 0.56 -0.15 0.6 -0.1 0.64 -0.07 0.69 -0.02 0.74 0.02 0.79 0.07 0.83 0.12 0.3 -0.25c-0.09,-0.05 -0.19,-0.1 -0.29,-0.14l-0.34 0zm0.63 0.14l-0.3 0.25 0.47 0.08 0 -0.25c-0.05,-0.03 -0.11,-0.05 -0.17,-0.08z"/>
  <path class="fil3" d="M104.04 5.7l0 0.16 0.34 0c-0.11,-0.06 -0.23,-0.11 -0.34,-0.16z"/>
  <path class="fil3" d="M64.18 5.11l0.34 -0.4 0 -0.08c-0.21,0.07 -0.42,0.16 -0.62,0.24l0.28 0.24 -0.28 -0.24c-0.06,0.02 -0.13,0.05 -0.19,0.08l0 0.23 0.47 -0.07z"/>
  <path class="fil1 str1" d="M117.34 52.25l0 52.01c-12.25,6.15 -35.46,-4.18 -35.46,12.06l0 -54.62c0.76,-12.29 24.18,-4.37 35.46,-9.45z"/>
  <path class="fil5 str2" d="M46.44 104.25c-0.9,0.58 -1.5,1.3 -1.8,2.16"/>
  <path class="fil5 str2" d="M117.37 104.36c1.13,1.07 1.9,2.41 2.32,4"/>
  <path class="fil1 str1" d="M78.13 153.84c0,-0.31 0.22,-0.55 0.49,-0.55 0.27,0 0.48,0.24 0.48,0.55 0,0.3 -0.21,0.55 -0.48,0.55 -0.27,0 -0.49,-0.25 -0.49,-0.55z"/>
  <path class="fil1 str1" d="M78.91 154.61c0,-0.3 0.22,-0.55 0.49,-0.55 0.26,0 0.48,0.25 0.48,0.55 0,0.31 -0.22,0.56 -0.48,0.56 -0.27,0 -0.49,-0.25 -0.49,-0.56z"/>
  <path class="fil1 str1" d="M79.85 155.49c0,-0.3 0.22,-0.55 0.49,-0.55 0.26,0 0.48,0.25 0.48,0.55 0,0.3 -0.22,0.55 -0.48,0.55 -0.27,0 -0.49,-0.25 -0.49,-0.55z"/>
  <path class="fil1 str1" d="M80.87 156.3c0,-0.3 0.21,-0.55 0.48,-0.55 0.27,0 0.49,0.25 0.49,0.55 0,0.3 -0.22,0.55 -0.49,0.55 -0.27,0 -0.48,-0.25 -0.48,-0.55z"/>
  <polygon class="fil1 str1" points="69.37,148.1 74.15,148.1 74.15,153.93 71.58,154.53 69.37,150.9 "/>
  <path class="fil6 str3" d="M155.05 109.82c0,-2.52 1.76,-4.57 3.92,-4.57 2.16,0 3.92,2.05 3.92,4.57 0,2.52 -1.76,4.57 -3.92,4.57 -2.16,0 -3.92,-2.05 -3.92,-4.57z"/>
  <path class="fil5 str3" d="M155.48 111.95c0,-2.53 2.35,-2.86 3.61,-1.37"/>
  <line class="fil5 str3" x1="159.09" y1="110.58" x2="159.09" y2= "105.24" />
  <line class="fil5 str4" x1="143.48" y1="40.91" x2="153.65" y2= "66.09" />
  <line class="fil5 str5" x1="142.44" y1="41.33" x2="152.61" y2= "66.51" />
  <line class="fil5 str4" x1="141.46" y1="41.73" x2="151.63" y2= "66.9" />
  <line class="fil5 str5" x1="140.38" y1="42.17" x2="150.55" y2= "67.34" />
  <line class="fil5 str4" x1="139.58" y1="42.49" x2="149.75" y2= "67.66" />
  <line class="fil5 str5" x1="138.54" y1="42.91" x2="148.71" y2= "68.08" />
  <line class="fil5 str4" x1="137.56" y1="43.31" x2="147.73" y2= "68.48" />
  <line class="fil5 str5" x1="136.48" y1="43.74" x2="146.65" y2= "68.92" />
  <path class="fil4" d="M141.46 66.28c-0.04,-0.18 -0.12,-0.34 -0.15,-0.52 0.03,0.18 0.07,0.36 0.15,0.52zm-0.18 -0.56c-0.9,-3 -2.14,-5.99 -1.5,-10.56 0.14,-1.01 0.92,-2.68 1.69,-4.66 0.27,1.19 1.4,2.43 2.44,3.62 0.83,1.02 3.28,4.05 4.07,7.41 -0.19,-1.87 -0.69,-4.94 -1.12,-5.85 1.14,1.04 7.57,2.9 7.99,13.1 0.02,0.28 0.04,0.56 0.07,0.81 5.23,10.04 4.22,14.02 3.47,18.08 0.3,4.01 1.1,8.1 0.68,10.87 -0.45,2.94 -1.1,6.22 -1.69,7.44 -0.27,0.51 -0.55,0.94 -0.87,1.4 0.22,-0.27 0.43,-0.51 0.63,-0.82 -1.92,9.47 -4.85,14.33 -7.32,16.91 -1.81,8.28 -6.67,11.45 -7.55,12.16 -1.46,1.2 -8.34,4.21 -2.33,2.74 -2.04,1.79 -3.73,3.3 -5.59,4.81 -4,3.18 -8.01,4.1 -11.48,2.93 -3.13,-0.31 -6.49,2.81 -9.46,3.12 -3.29,0.36 -9.09,-4.48 -7.98,-11.57 0.25,-0.06 0.53,-0.08 0.81,-0.1 -0.12,-0.09 -0.21,-0.14 -0.34,-0.23 0.14,-6.84 5.44,-10.59 13.2,-10.71 2.23,-0.06 4.94,-1.49 6.71,-2.08 -1.16,1.29 -1.71,2.44 -2.31,3.65 1.5,-0.25 4.12,-0.35 4.34,-0.45 0.24,-0.13 2.82,-1.58 4.34,-3.15 0.12,-0.29 0.26,-0.51 0.4,-0.69 2.5,-3.93 3.42,-4.84 4.5,-6.07 1.09,-1.23 1.55,-2.09 2.37,-4.2 0.05,0.15 0.09,0.3 0.13,0.44 0.01,-0.03 0.01,-0.03 0.02,-0.06 0.01,-4.02 2.65,-8.79 2.82,-9.73 0.1,-0.75 0.66,-3.15 0.84,-5.58 -0.74,-3.07 -0.65,-7.29 -0.71,-8.55 -0.04,-1.53 0.25,-2.21 -0.25,-4.24 9.62,4.82 0.39,2.29 -1.04,-4.55 -1.07,-5.15 -1.44,-10.1 0.02,-15.64z"/>
  <path class="fil3" d="M146.34 71.99c-0.18,-0.9 -1.03,-5.31 -2.96,-8.56 -1.96,-3.23 -1.45,-7.51 -0.94,-8.01 -0.37,0.7 -0.21,4.33 1.71,7.59 1.96,3.22 2.07,8.13 2.19,8.98z"/>
  <path class="fil3" d="M147.22 73.5c-1.95,-2.11 -4.81,-3.97 -5.71,-7.11 -0.93,-3.22 -2.39,-6.32 -1.7,-11.22 0.14,-1.02 0.89,-2.69 1.69,-4.66 0.27,1.19 1.41,2.43 2.41,3.65 1.04,1.18 4.41,5.42 4.34,9.57 -0.39,3.02 -0.42,6.72 -1.03,9.77zm-0.66 -1.37c0.49,-2.54 0.52,-5.69 0.87,-8.23 0.03,-3.53 -2.81,-7.12 -3.67,-8.14 -0.89,-1.02 -1.82,-2.05 -2.06,-3.07 -0.68,1.69 -1.31,3.1 -1.42,3.95 -0.6,4.16 0.97,6.89 1.73,9.63 0.79,2.64 2.88,4.11 4.55,5.86z"/>
  <path class="fil3" d="M138.38 127.8c4.88,-13.74 11.89,-15.73 13.05,-16.42 1.6,-1 3.13,-1.39 5.74,-4.82 -3.15,15.33 -8.86,18.59 -11.05,19.62 -2.67,0.99 -5.32,1.66 -7.74,1.62zm0.83 -0.58c2.14,0.06 4.46,-0.53 6.8,-1.4 1.96,-0.91 7.22,-3.58 9.97,-17.04 -2.29,3 -3.89,3.17 -5.32,4.02 -1.01,0.62 -7.15,2.38 -11.45,14.42z"/>
  <path class="fil3" d="M138.06 127.85c0.54,-2.3 1.44,-11.74 1.57,-13.84 0.01,-3.98 2.66,-8.79 2.79,-9.73 0.13,-0.92 0.97,-4.34 0.93,-7.23 0.34,1.8 1.55,4.37 2.96,6.98 1.44,2.64 0.79,9.32 0.29,10.76 -2.45,2.1 -6.65,10.2 -8.54,13.06zm1.49 -3.59c1.4,-2.98 4.55,-7.66 6.55,-9.42 0.45,-1.17 0.98,-6.73 -0.19,-8.94 -1.21,-2.16 -2.22,-4.31 -2.51,-5.79 0.06,2.41 -0.65,5.23 -0.75,6.01 -0.1,0.78 -2.27,5.01 -2.31,8.36 -0.09,1.72 -0.35,7.92 -0.79,9.78z"/>
  <path class="fil3" d="M139.27 127.85c1.58,-2.46 6.35,-5.53 6.92,-6.44 0.39,-0.59 3.58,-3.18 4,-5.57 -1.12,2.02 -3.73,4.65 -4.29,5.07 -0.6,0.45 -4.96,3.18 -6.63,6.94z"/>
  <path class="fil3" d="M151.67 98.42c0.38,-3.54 4.07,-9.1 4.23,-10.39 0.1,-0.81 2.28,-5.11 1.38,-8.08 -0.11,2.79 -1.6,6.93 -2,7.66 -0.45,0.75 -3.85,5.7 -3.61,10.81z"/>
  <path class="fil3" d="M147.24 113.34c0.79,-2.74 4.51,-6.73 4.83,-7.74 0.18,-0.63 2.55,-3.82 2.28,-6.26 -0.52,2.2 -2.29,5.32 -2.73,5.86 -0.44,0.55 -3.85,4.11 -4.38,8.14z"/>
  <path class="fil3" d="M147.68 106.52c-0.97,-2.77 -0.16,-7.97 -0.53,-9 -0.2,-0.66 -0.07,-4.52 -1.79,-6.56 0.9,2.17 1.25,5.7 1.2,6.38 -0.06,0.69 -0.88,5.36 1.12,9.18z"/>
  <path class="fil3" d="M141.53 121.11c-0.47,-3.21 2.14,-7.77 1.88,-10.63 -0.16,-1.69 -0.11,-3.1 0.1,-5.28 -0.33,2.23 -0.78,4.57 -1,6.23 -0.22,1.66 -1.63,6.51 -0.98,9.68z"/>
  <path class="fil3" d="M148.82 91.19c0.21,-2.36 0.22,-2.22 -2.08,-7.48 -1.39,-3.12 -4.51,-6.48 -3.31,-10.32 -0.35,1.39 0.96,4.98 2.3,6.61 1.38,1.59 5.78,7.12 3.09,11.19z"/>
  <path class="fil3" d="M130.44 135.42c2.12,-0.19 2,-0.14 6.27,-2.3 2.55,-1.28 4.99,-3.7 8.58,-3.44 -1.28,-0.02 -4.24,1.26 -5.44,2.33 -1.19,1.07 -5.35,4.61 -9.41,3.41z"/>
  <path class="fil3" d="M153.11 80.4c-0.22,-1.08 -1.42,-6.49 -0.76,-10.82 0.67,-4.35 -1.99,-9.15 -2.84,-9.62 0.8,0.73 2.38,4.97 1.72,9.32 -0.67,4.36 1.61,10.13 1.88,11.12z"/>
  <path class="fil3" d="M129.59 135.37c0.49,-1.41 1.44,-2.69 4.56,-5.4 3.18,-2.74 7.54,-3.04 9.53,-3.35 1.99,-0.27 4.85,-1.92 6.23,-3.48 -1.74,8.5 -6.72,11.75 -7.64,12.49 -0.9,0.74 -2.99,2.18 -3.92,2.57 -2.8,1.1 -6.3,-1.08 -8.76,-2.83zm0.87 -0.02c2.21,0.42 4.06,3.32 7.54,2.44 0.82,-0.34 2.79,-1.49 3.57,-2.15 0.77,-0.62 5.5,-3.26 7.03,-10.58 -1.17,1.35 -3.64,2.76 -5.37,2.97 -1.72,0.29 -5.48,0.56 -8.18,2.89 -2.7,2.34 -4.14,3.23 -4.59,4.43z"/>
  <path class="fil3" d="M129.59 133.98c4.29,-3.51 8.07,-13.93 8.65,-16.23 -1.14,2.13 -5.22,12.5 -8.65,16.23z"/>
  <path class="fil3" d="M136.99 127.8c1.44,-2.66 3.07,-8.55 1.98,-12.03 -0.69,1.78 -1.07,2.52 -1.95,3.57 -0.87,1.03 -1.61,1.87 -3.65,5.18 -1.14,1.54 -1.96,6.39 -3.93,10.1 -0.62,1.13 3.23,-6.3 7.55,-6.82zm0.65 0.25c-3.21,0.68 -7.76,5.88 -7.95,7.3 -0.32,-0.12 -1.61,0.13 -1.26,-0.32 2.06,-2.42 2.76,-9.36 4.18,-11.12 2.49,-3.9 3.39,-4.85 4.47,-6.08 1.09,-1.23 1.55,-2.09 2.37,-4.2 1.68,4.25 -0.11,11.29 -1.81,14.42z"/>
  <path class="fil3" d="M146.36 114.58c2.03,-2.28 8.4,-3.41 11.05,-8.6 0.59,-1.18 1.21,-4.5 1.69,-7.43 0.42,-2.94 -0.5,-7.37 -0.75,-11.65 -0.69,2.52 -2.07,5.85 -3.72,8.33 -1.66,2.48 -7.37,7.16 -8.27,19.35zm0.72 -1.16c0.75,-10.34 5.61,-14.27 6.98,-16.38 1.42,-2.11 3.28,-4.8 3.87,-6.95 0.19,3.6 0.31,7.27 -0.06,9.77 -0.37,2.5 -0.93,5.28 -1.45,6.26 -2.24,4.42 -7.61,5.38 -9.34,7.3z"/>
  <path class="fil3" d="M143.85 100.51c-1.32,-2.98 -1.22,-8.82 -1.26,-10.35 -0.08,-1.54 0.25,-2.21 -0.29,-4.25 6.11,3.06 8.07,8.67 9.23,13.9 -1.87,2.52 -3.58,6.93 -4.35,10.92 0.51,-4.1 -1.81,-6.66 -3.33,-10.22zm0.5 -1.48c1.27,3 3.42,5.57 2.99,9.02 0.66,-3.38 1.78,-6.17 3.36,-8.28 -0.99,-4.4 -2.63,-10.21 -7.76,-12.78 0.42,1.71 0.46,3.07 0.51,4.36 0.05,1.29 -0.22,5.2 0.9,7.68z"/>
  <path class="fil3" d="M149.81 94.41c-0.99,-4.02 3.77,-13.1 4.35,-16.78 0.58,-3.71 0.6,-6.17 0.29,-8.92 6.04,11.19 4.65,15.14 3.87,19.54 -1.57,5.13 -3.89,8.89 -6.78,11.7 -0.58,-1.83 -1.16,-3.67 -1.73,-5.54zm0.91 -0.84c0.39,1.52 0.54,3.66 0.93,5.16 2.33,-2.37 4.51,-6.11 5.85,-10.35 0.71,-3.62 2.45,-6.84 -2.02,-15.89 0.16,2.25 -0.47,4.22 -1,7.25 -0.53,3.02 -4.46,10.55 -3.76,13.83z"/>
  <path class="fil3" d="M147.71 90.4c-0.93,-0.99 -6.12,-7.59 -6.42,-9.03 -1.07,-5.15 -1.44,-10.11 0.02,-15.64 1.64,6.43 11.39,8.56 11.65,15.96 -1.69,5.21 -3.47,9.03 -2.68,13.4l-1.52 -2.8 -1.05 -1.89zm-0.11 -1.16l0.91 1.55 1.06 2.23c-0.74,-3.63 1.04,-6.65 2.38,-10.95 -0.34,-6.13 -8.8,-8.08 -10.32,-13.41 -1.16,4.59 -0.74,8.68 0.27,12.99 0.28,1.19 4.85,6.74 5.7,7.59z"/>
  <path class="fil3" d="M153.27 81.71l-0.34 0.53c-0.24,-1.6 -0.54,-4.81 -5.51,-8.7 -0.6,-0.49 -0.05,-2.23 0.02,-3.02 0.31,-2.79 0.49,-6.95 0.62,-7.48 0.16,-0.53 -0.59,-6.07 -1.2,-7.36 1.17,1.04 7.6,2.9 8.03,13.1 0.4,4.79 -0.44,8.94 -1.62,12.93zm-0.09 -0.29c1.04,-3.53 1.17,-7.22 0.76,-11.42 -0.35,-9 -4.82,-11.39 -5.84,-12.3 0.53,1.14 0.64,6.81 0.52,7.27 -0.15,0.46 -0.31,4.14 -0.57,6.59 -0.06,0.72 -0.08,1.24 0.47,1.65 4.35,3.44 4.17,7.25 4.33,8.67l0.33 -0.46z"/>
  <path class="fil3" d="M106.96 137.41c3.39,1.47 7.64,0.76 11.87,-3.38 4.28,-4.21 3.53,-5.87 6.15,-8.91 -1.46,0.61 -3.39,1.7 -5.15,1.87 -7.8,0.77 -11.7,3.8 -12.87,10.42zm-1.02 -0.07c0.13,-6.85 5.4,-10.6 13.19,-10.72 2.2,-0.06 4.94,-1.48 6.68,-2.08 -2.72,3.06 -2.16,5.38 -6.49,9.88 -4.73,5 -9.41,5.77 -13.38,2.92z"/>
  <path class="fil3" d="M122.49 145.14c3.59,1.68 9.42,-0.73 10.97,-2.02 1.57,-1.24 3.41,-2.65 5.14,-4.19 -2.69,0.67 -7.24,-1.24 -7.62,-1.65 -0.41,-0.42 -2.07,-1.44 -3.1,-1.69 -1.02,3.67 -7.5,5.37 -13.67,3.62 3.11,1.42 5.55,2.92 8.28,5.93zm11.86 -1.96c-6.3,5.06 -12.7,4.38 -16.93,-1.15 -1,-1.22 -2.97,-2.01 -4.08,-3.01l0.11 -0.05c3.63,1.27 12.47,1.68 15.1,-4.2 1.2,0.28 3.17,1.49 3.63,1.99 0.44,0.46 4.61,2.41 7.8,1.62 -2.05,1.79 -3.77,3.29 -5.63,4.8z"/>
  <path class="fil3" d="M105.78 138.21c2.09,0.37 1.95,0.34 6.04,2.94 2.43,1.54 4.66,4.22 8.25,4.33 -1.26,-0.12 -4.14,-1.7 -5.21,-2.9 -1.11,-1.2 -4.95,-5.13 -9.08,-4.37z"/>
  <path class="fil3" d="M105.43 137.66c-1.08,7.09 4.69,11.93 8.01,11.58 3.26,-0.37 7,-4.08 10.4,-2.89 -1.44,-0.11 -2.23,-1.33 -3.45,-2.69 -1.18,-1.35 -7.67,-7.21 -14.96,-6zm0.7 0.92c6.55,-0.96 11.94,3.5 13.05,4.7 1.1,1.2 0.86,2.16 2.33,2.52 -3.69,-0.34 -5.63,2.2 -8.56,2.48 -2.96,0.28 -7.7,-3.51 -6.82,-9.7z"/>
  <path class="fil3" d="M106.47 138.05c1.1,-1.5 1.05,-1.44 5.23,-3.69 2.49,-1.33 6.17,-2.13 7.46,-4.96 -0.53,1.02 -3.21,2.66 -4.88,3.1 -1.7,0.42 -7.25,2.01 -7.81,5.55z"/>
  <path class="fil3" d="M112.96 138.78c5.3,-2.32 8.32,-7.41 9.78,-10.41 1.1,-0.36 4.84,-0.5 5.14,-0.62 0.26,-0.13 3.81,-2.17 5.04,-4 -0.79,1.14 -1.48,2.31 -1.71,3.97 -0.22,1.65 -2.25,8.27 -4.81,10.55 -2.55,2.29 -10.74,3.1 -13.44,0.51zm1.25 -0.16c2.4,2.3 9.32,1.23 11.54,-0.77 2.23,-2 4.29,-7.43 4.48,-8.89 0.19,-1.49 0.24,-1.72 0.94,-2.74 -1.09,1.61 -3.66,2.61 -3.89,2.74 -0.22,0.1 -3.54,0.21 -4.47,0.57 -1.29,2.61 -3.95,7.07 -8.6,9.09z"/>
  <path class="fil3" d="M113.8 139.35c0.83,-0.79 3.13,-1.22 7.11,-1.97 3.98,-0.76 5.78,-5.44 5.79,-6.86 -0.26,1.45 -1.81,5.3 -5.82,6.05 -3.98,0.76 -6.35,1.97 -7.08,2.78z"/>
  <path class="fil3" d="M116.14 140.45c1,-0.17 4.93,1.53 8.34,2.62 3.39,1.05 9.46,-1.32 10.23,-2.36 -1.03,0.93 -6.2,2.75 -9.62,1.67 -3.39,-1.05 -7.89,-2.26 -8.95,-1.93z"/>
  <path class="fil6 str3" d="M144.54 95.53c2.64,-5.02 8.82,-8.12 13.59,-7.48 3.97,0.46 8.49,17.08 4.04,24.12 -1.03,-6.58 -8.06,-8.15 -18.3,-2.68l0.67 -13.96z"/>
  <path class="fil5 str3" d="M144.54 95.53c2.64,-5.02 8.82,-8.12 13.59,-7.48 3.97,0.46 8.49,17.08 4.04,24.12 -1.03,-6.58 -8.06,-8.15 -18.3,-2.68l0.67 -13.96z"/>
  <path class="fil0" d="M145.36 103.56c5.7,-3.01 15.21,-2.96 18.57,-1.61 -0.23,-3 -0.9,-6.03 -1.8,-8.49l-4.21 0.23c-8.31,1.86 -12.38,3.96 -12.2,6.3l-0.36 3.57z"/>
  <path class="fil0 str0" d="M145.36 103.56c5.7,-3.01 15.21,-2.96 18.57,-1.61 -0.23,-3 -0.9,-6.03 -1.8,-8.49l-4.21 0.23c-8.31,1.86 -12.38,3.96 -12.2,6.3l-0.36 3.57z"/>
  <path class="fil1" d="M145.74 98.82c5.2,-2.87 13.16,-4.73 16.8,-4.15 -1.16,-3.69 -2.83,-6.44 -4.41,-6.62 -4.77,-0.64 -10.95,2.46 -13.58,7.47l1.19 3.3z"/>
  <path class="fil1 str0" d="M145.74 98.82c5.2,-2.87 13.16,-4.73 16.8,-4.15 -1.16,-3.69 -2.83,-6.44 -4.41,-6.62 -4.77,-0.64 -10.95,2.46 -13.58,7.47l1.19 3.3z"/>
  <path class="fil6 str6" d="M151.05 123.01c-3.2,6.24 -6.78,10.83 -10.74,13.76 -1.38,-2.75 -8.26,-4.61 -13.78,-5.8 4.77,-3.11 7.76,-6.53 8.96,-10.25 3.74,0.04 11.41,0.52 15.56,2.29z"/>
  <path class="fil5 str6" d="M151.05 123.01c-3.2,6.24 -6.78,10.83 -10.74,13.76 -1.38,-2.75 -8.26,-4.61 -13.78,-5.8 4.77,-3.11 7.76,-6.53 8.96,-10.25 3.74,0.04 11.41,0.52 15.56,2.29z"/>
  <path class="fil0" d="M129.94 128.44c4.41,-0.05 12.69,2.74 14.34,4.63l0.14 -0.09c1.38,-1.54 2.7,-3.3 3.97,-5.29l-14.38 -3.83c-0.99,1.59 -2.35,3.11 -4.07,4.58z"/>
  <path class="fil0 str0" d="M129.94 128.44c4.41,-0.05 12.69,2.74 14.34,4.63l0.14 -0.09c1.38,-1.54 2.7,-3.3 3.97,-5.29l-14.38 -3.83c-0.99,1.59 -2.35,3.11 -4.07,4.58z"/>
  <path class="fil1" d="M147.88 128.47c0,0 0,-0.01 0,-0.01 -2.74,-2.18 -10.39,-3.26 -14.83,-3.24 1.13,-1.45 1.94,-2.95 2.44,-4.5 3.74,0.04 11.41,0.52 15.56,2.29 -1.02,1.99 -2.07,3.8 -3.17,5.46z"/>
  <path class="fil1 str0" d="M147.88 128.47c0,0 0,-0.01 0,-0.01 -2.74,-2.18 -10.39,-3.26 -14.83,-3.24 1.13,-1.45 1.94,-2.95 2.44,-4.5 3.74,0.04 11.41,0.52 15.56,2.29 -1.02,1.99 -2.07,3.8 -3.17,5.46z"/>
  <path class="fil6 str3" d="M2.62 109.82c0,-2.52 1.75,-4.57 3.92,-4.57 2.16,0 3.91,2.05 3.91,4.57 0,2.52 -1.75,4.57 -3.91,4.57 -2.17,0 -3.92,-2.05 -3.92,-4.57z"/>
  <path class="fil5 str3" d="M10.02 111.95c0,-2.53 -2.34,-2.86 -3.61,-1.37"/>
  <line class="fil5 str3" x1="6.41" y1="110.58" x2="6.41" y2= "105.24" />
  <line class="fil5 str4" x1="22.02" y1="40.91" x2="11.85" y2= "66.09" />
  <line class="fil5 str5" x1="23.07" y1="41.33" x2="12.9" y2= "66.51" />
  <line class="fil5 str4" x1="24.05" y1="41.73" x2="13.88" y2= "66.9" />
  <line class="fil5 str5" x1="25.13" y1="42.17" x2="14.96" y2= "67.34" />
  <line class="fil5 str4" x1="25.92" y1="42.49" x2="15.75" y2= "67.66" />
  <line class="fil5 str5" x1="26.97" y1="42.91" x2="16.8" y2= "68.08" />
  <line class="fil5 str4" x1="27.95" y1="43.31" x2="17.78" y2= "68.48" />
  <line class="fil5 str5" x1="29.03" y1="43.74" x2="18.86" y2= "68.92" />
  <path class="fil4" d="M24.05 66.28c0.04,-0.18 0.11,-0.34 0.15,-0.52 -0.04,0.18 -0.08,0.36 -0.15,0.52zm0.18 -0.56c0.89,-3 2.13,-5.99 1.5,-10.56 -0.15,-1.01 -0.92,-2.68 -1.69,-4.66 -0.28,1.19 -1.41,2.43 -2.45,3.62 -0.82,1.02 -3.27,4.05 -4.07,7.41 0.19,-1.87 0.69,-4.94 1.12,-5.85 -1.13,1.04 -7.57,2.9 -7.99,13.1 -0.02,0.28 -0.04,0.56 -0.06,0.81 -5.24,10.04 -4.22,14.02 -3.47,18.08 -0.3,4.01 -1.1,8.1 -0.68,10.87 0.44,2.94 1.09,6.22 1.69,7.44 0.26,0.51 0.55,0.94 0.87,1.4 -0.22,-0.27 -0.44,-0.51 -0.63,-0.82 1.91,9.47 4.85,14.33 7.32,16.91 1.8,8.28 6.66,11.45 7.55,12.16 1.46,1.2 8.34,4.21 2.32,2.74 2.05,1.79 3.74,3.3 5.6,4.81 3.99,3.18 8,4.1 11.47,2.93 3.14,-0.31 6.5,2.81 9.46,3.12 3.29,0.36 9.1,-4.48 7.99,-11.57 -0.26,-0.06 -0.54,-0.08 -0.82,-0.1 0.12,-0.09 0.22,-0.14 0.34,-0.23 -0.13,-6.84 -5.44,-10.59 -13.19,-10.71 -2.23,-0.06 -4.95,-1.49 -6.71,-2.08 1.16,1.29 1.71,2.44 2.3,3.65 -1.5,-0.25 -4.11,-0.35 -4.34,-0.45 -0.23,-0.13 -2.81,-1.58 -4.33,-3.15 -0.13,-0.29 -0.27,-0.51 -0.4,-0.69 -2.5,-3.93 -3.42,-4.84 -4.51,-6.07 -1.08,-1.23 -1.54,-2.09 -2.37,-4.2 -0.04,0.15 -0.08,0.3 -0.13,0.44 0,-0.03 0,-0.03 -0.01,-0.06 -0.02,-4.02 -2.66,-8.79 -2.83,-9.73 -0.09,-0.75 -0.65,-3.15 -0.84,-5.58 0.74,-3.07 0.66,-7.29 0.71,-8.55 0.04,-1.53 -0.25,-2.21 0.26,-4.24 -9.62,4.82 -0.39,2.29 1.04,-4.55 1.06,-5.15 1.44,-10.1 -0.02,-15.64z"/>
  <path class="fil3" d="M19.16 71.99c0.19,-0.9 1.04,-5.31 2.96,-8.56 1.97,-3.23 1.45,-7.51 0.95,-8.01 0.37,0.7 0.21,4.33 -1.71,7.59 -1.97,3.22 -2.07,8.13 -2.2,8.98z"/>
  <path class="fil3" d="M18.28 73.5c1.95,-2.11 4.82,-3.97 5.72,-7.11 0.92,-3.22 2.39,-6.32 1.69,-11.22 -0.14,-1.02 -0.88,-2.69 -1.68,-4.66 -0.28,1.19 -1.41,2.43 -2.41,3.65 -1.04,1.18 -4.42,5.42 -4.35,9.57 0.4,3.02 0.43,6.72 1.03,9.77zm0.66 -1.37c-0.48,-2.54 -0.52,-5.69 -0.86,-8.23 -0.03,-3.53 2.8,-7.12 3.66,-8.14 0.9,-1.02 1.82,-2.05 2.06,-3.07 0.68,1.69 1.31,3.1 1.43,3.95 0.59,4.16 -0.97,6.89 -1.74,9.63 -0.78,2.64 -2.88,4.11 -4.55,5.86z"/>
  <path class="fil3" d="M27.13 127.8c-4.89,-13.74 -11.89,-15.73 -13.06,-16.42 -1.59,-1 -3.12,-1.39 -5.73,-4.82 3.15,15.33 8.85,18.59 11.05,19.62 2.67,0.99 5.32,1.66 7.74,1.62zm-0.83 -0.58c-2.14,0.06 -4.46,-0.53 -6.8,-1.4 -1.96,-0.91 -7.22,-3.58 -9.98,-17.04 2.3,3 3.89,3.17 5.32,4.02 1.02,0.62 7.15,2.38 11.46,14.42z"/>
  <path class="fil3" d="M27.45 127.85c-0.54,-2.3 -1.45,-11.74 -1.57,-13.84 -0.01,-3.98 -2.66,-8.79 -2.8,-9.73 -0.12,-0.92 -0.97,-4.34 -0.92,-7.23 -0.34,1.8 -1.56,4.37 -2.97,6.98 -1.44,2.64 -0.78,9.32 -0.28,10.76 2.45,2.1 6.65,10.2 8.54,13.06zm-1.5 -3.59c-1.39,-2.98 -4.54,-7.66 -6.55,-9.42 -0.45,-1.17 -0.98,-6.73 0.19,-8.94 1.22,-2.16 2.22,-4.31 2.52,-5.79 -0.06,2.41 0.64,5.23 0.75,6.01 0.1,0.78 2.27,5.01 2.3,8.36 0.1,1.72 0.36,7.92 0.79,9.78z"/>
  <path class="fil3" d="M26.24 127.85c-1.58,-2.46 -6.35,-5.53 -6.93,-6.44 -0.38,-0.59 -3.58,-3.18 -4,-5.57 1.12,2.02 3.73,4.65 4.29,5.07 0.6,0.45 4.97,3.18 6.64,6.94z"/>
  <path class="fil3" d="M13.83 98.42c-0.38,-3.54 -4.06,-9.1 -4.22,-10.39 -0.11,-0.81 -2.29,-5.11 -1.39,-8.08 0.11,2.79 1.6,6.93 2.01,7.66 0.44,0.75 3.85,5.7 3.6,10.81z"/>
  <path class="fil3" d="M18.27 113.34c-0.8,-2.74 -4.52,-6.73 -4.83,-7.74 -0.18,-0.63 -2.55,-3.82 -2.29,-6.26 0.53,2.2 2.29,5.32 2.74,5.86 0.44,0.55 3.84,4.11 4.38,8.14z"/>
  <path class="fil3" d="M17.83 106.52c0.97,-2.77 0.15,-7.97 0.53,-9 0.19,-0.66 0.07,-4.52 1.79,-6.56 -0.9,2.17 -1.25,5.7 -1.2,6.38 0.05,0.69 0.88,5.36 -1.12,9.18z"/>
  <path class="fil3" d="M23.97 121.11c0.48,-3.21 -2.13,-7.77 -1.87,-10.63 0.15,-1.69 0.11,-3.1 -0.1,-5.28 0.32,2.23 0.77,4.57 1,6.23 0.22,1.66 1.63,6.51 0.97,9.68z"/>
  <path class="fil3" d="M35.06 135.42c-2.11,-0.19 -2,-0.14 -6.26,-2.3 -2.55,-1.28 -4.99,-3.7 -8.59,-3.44 1.28,-0.02 4.25,1.26 5.44,2.33 1.2,1.07 5.36,4.61 9.41,3.41z"/>
  <path class="fil3" d="M12.39 80.4c0.23,-1.08 1.42,-6.49 0.76,-10.82 -0.66,-4.35 1.99,-9.15 2.85,-9.62 -0.81,0.73 -2.38,4.97 -1.72,9.32 0.66,4.36 -1.61,10.13 -1.89,11.12z"/>
  <path class="fil3" d="M35.92 135.37c-0.49,-1.41 -1.45,-2.69 -4.56,-5.4 -3.19,-2.74 -7.54,-3.04 -9.54,-3.35 -1.99,-0.27 -4.84,-1.92 -6.23,-3.48 1.74,8.5 6.72,11.75 7.65,12.49 0.89,0.74 2.98,2.18 3.92,2.57 2.79,1.1 6.29,-1.08 8.76,-2.83zm-0.87 -0.02c-2.22,0.42 -4.06,3.32 -7.55,2.44 -0.82,-0.34 -2.79,-1.49 -3.56,-2.15 -0.77,-0.62 -5.5,-3.26 -7.04,-10.58 1.18,1.35 3.64,2.76 5.38,2.97 1.72,0.29 5.47,0.56 8.17,2.89 2.7,2.34 4.14,3.23 4.6,4.43z"/>
  <path class="fil3" d="M35.92 133.98c-4.3,-3.51 -8.08,-13.93 -8.66,-16.23 1.14,2.13 5.23,12.5 8.66,16.23z"/>
  <path class="fil3" d="M28.52 127.8c-1.44,-2.66 -3.07,-8.55 -1.99,-12.03 0.7,1.78 1.07,2.52 1.95,3.57 0.88,1.03 1.61,1.87 3.65,5.18 1.14,1.54 1.96,6.39 3.93,10.1 0.62,1.13 -3.22,-6.3 -7.54,-6.82zm-0.65 0.25c3.2,0.68 7.76,5.88 7.94,7.3 0.33,-0.12 1.62,0.13 1.26,-0.32 -2.05,-2.42 -2.76,-9.36 -4.18,-11.12 -2.49,-3.9 -3.38,-4.85 -4.47,-6.08 -1.08,-1.23 -1.54,-2.09 -2.37,-4.2 -1.68,4.25 0.12,11.29 1.82,14.42z"/>
  <path class="fil3" d="M19.15 114.58c-2.04,-2.28 -8.41,-3.41 -11.06,-8.6 -0.59,-1.18 -1.21,-4.5 -1.69,-7.43 -0.41,-2.94 0.51,-7.37 0.76,-11.65 0.68,2.52 2.07,5.85 3.72,8.33 1.65,2.48 7.36,7.16 8.27,19.35zm-0.73 -1.16c-0.75,-10.34 -5.6,-14.27 -6.98,-16.38 -1.41,-2.11 -3.27,-4.8 -3.86,-6.95 -0.2,3.6 -0.31,7.27 0.06,9.77 0.37,2.5 0.93,5.28 1.45,6.26 2.24,4.42 7.61,5.38 9.33,7.3z"/>
  <path class="fil3" d="M21.66 100.51c1.31,-2.98 1.22,-8.82 1.26,-10.35 0.07,-1.54 -0.25,-2.21 0.29,-4.25 -6.12,3.06 -8.08,8.67 -9.23,13.9 1.86,2.52 3.58,6.93 4.35,10.92 -0.52,-4.1 1.81,-6.66 3.33,-10.22zm-0.51 -1.48c-1.27,3 -3.42,5.57 -2.98,9.02 -0.67,-3.38 -1.78,-6.17 -3.37,-8.28 0.99,-4.4 2.64,-10.21 7.77,-12.78 -0.43,1.71 -0.47,3.07 -0.52,4.36 -0.05,1.29 0.23,5.2 -0.9,7.68z"/>
  <path class="fil3" d="M15.69 94.41c0.99,-4.02 -3.76,-13.1 -4.34,-16.78 -0.59,-3.71 -0.6,-6.17 -0.29,-8.92 -6.04,11.19 -4.65,15.14 -3.87,19.54 1.56,5.13 3.89,8.89 6.78,11.7 0.57,-1.83 1.15,-3.67 1.72,-5.54zm-0.91 -0.84c-0.39,1.52 -0.53,3.66 -0.93,5.16 -2.32,-2.37 -4.51,-6.11 -5.84,-10.35 -0.71,-3.62 -2.46,-6.84 2.02,-15.89 -0.16,2.25 0.46,4.22 1,7.25 0.53,3.02 4.46,10.55 3.75,13.83z"/>
  <path class="fil3" d="M17.8 90.4c0.93,-0.99 6.11,-7.59 6.41,-9.03 1.07,-5.15 1.45,-10.11 -0.02,-15.64 -1.64,6.43 -11.39,8.56 -11.64,15.96 1.68,5.21 3.46,9.03 2.67,13.4l1.52 -2.8 1.06 -1.89zm0.1 -1.16l-0.9 1.55 -1.07 2.23c0.75,-3.63 -1.03,-6.65 -2.38,-10.95 0.34,-6.13 8.81,-8.08 10.33,-13.41 1.15,4.59 0.73,8.68 -0.28,12.99 -0.27,1.19 -4.84,6.74 -5.7,7.59z"/>
  <path class="fil3" d="M12.24 81.71l0.34 0.53c0.23,-1.6 0.53,-4.81 5.5,-8.7 0.61,-0.49 0.06,-2.23 -0.01,-3.02 -0.32,-2.79 -0.5,-6.95 -0.63,-7.48 -0.16,-0.53 0.6,-6.07 1.2,-7.36 -1.17,1.04 -7.6,2.9 -8.02,13.1 -0.4,4.79 0.43,8.94 1.62,12.93zm0.09 -0.29c-1.04,-3.53 -1.17,-7.22 -0.77,-11.42 0.36,-9 4.83,-11.39 5.84,-12.3 -0.52,1.14 -0.63,6.81 -0.52,7.27 0.15,0.46 0.32,4.14 0.58,6.59 0.05,0.72 0.07,1.24 -0.48,1.65 -4.35,3.44 -4.16,7.25 -4.33,8.67l-0.32 -0.46z"/>
  <path class="fil3" d="M58.54 137.41c-3.38,1.47 -7.63,0.76 -11.87,-3.38 -4.27,-4.21 -3.53,-5.87 -6.14,-8.91 1.46,0.61 3.38,1.7 5.15,1.87 7.8,0.77 11.69,3.8 12.86,10.42zm1.03 -0.07c-0.13,-6.85 -5.41,-10.6 -13.2,-10.72 -2.19,-0.06 -4.94,-1.48 -6.67,-2.08 2.72,3.06 2.16,5.38 6.49,9.88 4.73,5 9.41,5.77 13.38,2.92z"/>
  <path class="fil3" d="M59.72 138.21c-2.08,0.37 -1.95,0.34 -6.03,2.94 -2.44,1.54 -4.67,4.22 -8.26,4.33 1.27,-0.12 4.14,-1.7 5.21,-2.9 1.11,-1.2 4.96,-5.13 9.08,-4.37z"/>
  <path class="fil3" d="M60.08 137.66c1.07,7.09 -4.7,11.93 -8.02,11.58 -3.25,-0.37 -6.99,-4.08 -10.39,-2.89 1.44,-0.11 2.23,-1.33 3.44,-2.69 1.19,-1.35 7.68,-7.21 14.97,-6zm-0.71 0.92c-6.55,-0.96 -11.94,3.5 -13.04,4.7 -1.11,1.2 -0.87,2.16 -2.33,2.52 3.69,-0.34 5.62,2.2 8.55,2.48 2.96,0.28 7.7,-3.51 6.82,-9.7z"/>
  <path class="fil3" d="M59.04 138.05c-1.1,-1.5 -1.06,-1.44 -5.23,-3.69 -2.49,-1.33 -6.17,-2.13 -7.47,-4.96 0.53,1.02 3.21,2.66 4.88,3.1 1.71,0.42 7.26,2.01 7.82,5.55z"/>
  <path class="fil3" d="M52.54 138.78c-5.3,-2.32 -8.31,-7.41 -9.78,-10.41 -1.1,-0.36 -4.83,-0.5 -5.13,-0.62 -0.27,-0.13 -3.82,-2.17 -5.04,-4 0.79,1.14 1.48,2.31 1.7,3.97 0.23,1.65 2.26,8.27 4.81,10.55 2.55,2.29 10.74,3.1 13.44,0.51zm-1.24 -0.16c-2.41,2.3 -9.32,1.23 -11.55,-0.77 -2.22,-2 -4.29,-7.43 -4.48,-8.89 -0.19,-1.49 -0.23,-1.72 -0.93,-2.74 1.08,1.61 3.65,2.61 3.88,2.74 0.23,0.1 3.54,0.21 4.47,0.57 1.29,2.61 3.95,7.07 8.61,9.09z"/>
  <path class="fil3" d="M51.7 139.35c-0.83,-0.79 -3.12,-1.22 -7.11,-1.97 -3.98,-0.76 -5.77,-5.44 -5.78,-6.86 0.25,1.45 1.8,5.3 5.82,6.05 3.98,0.76 6.34,1.97 7.07,2.78z"/>
  <path class="fil3" d="M49.37 140.45c-1,-0.17 -4.93,1.53 -8.35,2.62 -3.39,1.05 -9.45,-1.32 -10.23,-2.36 1.03,0.93 6.21,2.75 9.62,1.67 3.39,-1.05 7.89,-2.26 8.96,-1.93z"/>
  <path class="fil6 str3" d="M20.96 95.53c-2.63,-5.02 -9.86,-8.73 -14.17,-7.41 -2.73,0.64 -7.91,17.01 -3.45,24.05 1.03,-6.58 8.06,-8.15 18.3,-2.68l-0.68 -13.96z"/>
  <path class="fil5 str3" d="M20.96 95.53c-2.63,-5.02 -9.86,-8.73 -14.17,-7.41 -2.73,0.64 -7.91,17.01 -3.45,24.05 1.03,-6.58 8.06,-8.15 18.3,-2.68l-0.68 -13.96z"/>
  <path class="fil0" d="M20.14 103.56c-5.62,-2.97 -14.93,-2.96 -18.41,-1.66 0.23,-2.49 0.76,-4.98 1.41,-7.15l4.44 -1.06c8.32,1.86 12.39,3.96 12.21,6.3l0.35 3.57z"/>
  <path class="fil0 str0" d="M20.14 103.56c-5.62,-2.97 -14.93,-2.96 -18.41,-1.66 0.23,-2.49 0.76,-4.98 1.41,-7.15l4.44 -1.06c8.32,1.86 12.39,3.96 12.21,6.3l0.35 3.57z"/>
  <path class="fil1" d="M19.76 98.82c-5.1,-2.82 -12.86,-4.66 -16.59,-4.18 1.1,-3.58 2.55,-6.27 3.62,-6.52 4.31,-1.32 11.53,2.39 14.17,7.4l-1.2 3.3z"/>
  <path class="fil1 str0" d="M19.76 98.82c-5.1,-2.82 -12.86,-4.66 -16.59,-4.18 1.1,-3.58 2.55,-6.27 3.62,-6.52 4.31,-1.32 11.53,2.39 14.17,7.4l-1.2 3.3z"/>
  <path class="fil6 str6" d="M14.46 123.01c3.19,6.24 6.77,10.83 10.74,13.76 1.37,-2.75 8.25,-4.61 13.77,-5.8 -4.77,-3.11 -7.75,-6.53 -8.96,-10.25 -3.73,0.04 -11.4,0.52 -15.55,2.29z"/>
  <path class="fil5 str6" d="M14.46 123.01c3.19,6.24 6.77,10.83 10.74,13.76 1.37,-2.75 8.25,-4.61 13.77,-5.8 -4.77,-3.11 -7.75,-6.53 -8.96,-10.25 -3.73,0.04 -11.4,0.52 -15.55,2.29z"/>
  <path class="fil0" d="M35.56 128.44c-4.4,-0.05 -12.69,2.74 -14.33,4.63l-0.14 -0.09c-1.38,-1.53 -2.7,-3.3 -3.97,-5.3l14.37 -3.82c1,1.59 2.36,3.11 4.07,4.58z"/>
  <path class="fil0 str0" d="M35.56 128.44c-4.4,-0.05 -12.69,2.74 -14.33,4.63l-0.14 -0.09c-1.38,-1.53 -2.7,-3.3 -3.97,-5.3l14.37 -3.82c1,1.59 2.36,3.11 4.07,4.58z"/>
  <path class="fil1" d="M17.62 128.46c2.74,-2.18 10.39,-3.26 14.84,-3.24 -1.13,-1.45 -1.95,-2.95 -2.45,-4.5 -3.73,0.04 -11.4,0.52 -15.55,2.29 1.01,1.99 2.07,3.8 3.16,5.45z"/>
  <path class="fil1 str0" d="M17.62 128.46c2.74,-2.18 10.39,-3.26 14.84,-3.24 -1.13,-1.45 -1.95,-2.95 -2.45,-4.5 -3.73,0.04 -11.4,0.52 -15.55,2.29 1.01,1.99 2.07,3.8 3.16,5.45z"/>
  <path class="fil4 str6" d="M134.01 25.99c0,-4.59 -3.38,-8.4 -7.47,-8.4 -4.08,0 -9.48,5.04 -9.48,9.63 0,4.58 5.6,6.34 9.65,6.73 4.07,0.39 7.3,-3.37 7.3,-7.96z"/>
  <path class="fil5 str6" d="M134.01 25.99c0,-4.59 -3.38,-8.4 -7.47,-8.4 -4.08,0 -9.48,5.04 -9.48,9.63 0,4.58 5.6,6.34 9.65,6.73 4.07,0.39 7.3,-3.37 7.3,-7.96z"/>
  <path class="fil2" d="M121.78 21.47c0.15,0.05 4.47,3.44 4.47,3.44 -1.86,1.77 -3.47,6.83 -1.62,8.73 -3.66,-0.73 -7.57,-2.59 -7.57,-6.42 0,-0.4 0.04,-0.81 0.12,-1.21 2.06,-2.11 4.51,-4.57 4.6,-4.54z"/>
  <polygon class="fil3" points="126.52,25.2 126.49,24.59 126.45,24.55 126.31,24.45 126.09,24.28 125.82,24.06 125.49,23.81 125.12,23.52 124.72,23.21 124.31,22.89 123.9,22.57 123.5,22.26 123.31,22.12 123.12,21.97 122.95,21.84 122.78,21.71 122.63,21.59 122.49,21.49 122.36,21.39 122.25,21.31 122.16,21.24 122.08,21.19 122.02,21.15 121.91,21.09 121.65,21.85 121.59,21.83 121.62,21.85 121.69,21.89 121.78,21.96 121.88,22.04 122,22.13 122.14,22.23 122.3,22.35 122.46,22.47 122.63,22.61 122.82,22.75 123.01,22.9 123.41,23.21 123.82,23.53 124.23,23.84 124.63,24.15 124.99,24.44 125.32,24.69 125.6,24.91 125.81,25.08 125.95,25.19 126,25.22 125.97,24.62 126.52,25.2 126.86,24.88 126.49,24.59 "/>
  <path class="fil3" d="M125.35 33.77l0.01 -0.08 -0.2 -0.12 -0.17 -0.14 -0.16 -0.15 -0.13 -0.18 -0.12 -0.2 -0.1 -0.22 -0.09 -0.23 -0.07 -0.25 -0.05 -0.27 -0.04 -0.29 -0.01 -0.29 -0.01 -0.31 0.01 -0.32 0.03 -0.32 0.04 -0.33 0.06 -0.33 0.07 -0.34 0.08 -0.34 0.1 -0.33 0.1 -0.34 0.12 -0.33 0.12 -0.32 0.14 -0.31 0.14 -0.31 0.15 -0.3 0.15 -0.28 0.16 -0.27 0.17 -0.25 0.16 -0.24 0.17 -0.21 0.17 -0.2 0.17 -0.17 -0.55 -0.58 -0.2 0.21 -0.2 0.23 -0.2 0.24 -0.19 0.27 -0.18 0.28 -0.18 0.29 -0.16 0.31 -0.17 0.32 -0.15 0.33 -0.14 0.34 -0.14 0.35 -0.12 0.35 -0.11 0.36 -0.1 0.36 -0.09 0.36 -0.08 0.37 -0.06 0.36 -0.05 0.37 -0.03 0.35 -0.01 0.36 0 0.35 0.03 0.34 0.04 0.33 0.06 0.33 0.09 0.31 0.11 0.3 0.13 0.29 0.14 0.23c0.35,0.08 0.71,0.15 1.06,0.21l0.01 -0.06 0.02 0.07c0.08,0.01 0.16,0.03 0.25,0.04z"/>
  <path class="fil3" d="M125.1 33.73l-0.02 -0.07 -0.17 0.03c0.06,0.02 0.12,0.03 0.19,0.04z"/>
  <path class="fil3" d="M121.91 21.09l-0.01 0 -0.38 0.07 -0.1 0.08 -0.12 0.1 -0.15 0.14 -0.18 0.16 -0.2 0.19 -0.22 0.22 -0.25 0.25 -0.27 0.27 -0.29 0.28 -0.3 0.3 -0.32 0.32 -0.32 0.32 -0.34 0.34 -0.34 0.34 -0.34 0.35 -0.34 0.35 -0.06 0.06c-0.15,0.48 -0.25,0.97 -0.29,1.45l0.26 -0.27 0.33 -0.34 0.33 -0.34 0.34 -0.35 0.35 -0.34 0.33 -0.34 0.33 -0.34 0.33 -0.33 0.31 -0.31 0.3 -0.3 0.29 -0.29 0.27 -0.26 0.25 -0.24 0.22 -0.22 0.2 -0.19 0.17 -0.16 0.13 -0.12 0.1 -0.09 0.04 -0.03 -0.32 0.03 0 0 0.26 -0.76z"/>
  <path class="fil4 str6" d="M30.97 25.99c0,-4.59 3.38,-8.4 7.46,-8.4 4.09,0 9.48,5.04 9.48,9.63 0,4.58 -5.6,6.34 -9.65,6.73 -4.06,0.39 -7.29,-3.37 -7.29,-7.96z"/>
  <path class="fil5 str6" d="M30.97 25.99c0,-4.59 3.38,-8.4 7.46,-8.4 4.09,0 9.48,5.04 9.48,9.63 0,4.58 -5.6,6.34 -9.65,6.73 -4.06,0.39 -7.29,-3.37 -7.29,-7.96z"/>
  <path class="fil2" d="M43.2 21.47c-0.15,0.05 -4.47,3.44 -4.47,3.44 1.86,1.77 3.46,6.83 1.62,8.73 3.65,-0.73 7.56,-2.59 7.56,-6.42 0,-0.4 -0.04,-0.81 -0.12,-1.21 -2.06,-2.11 -4.51,-4.57 -4.59,-4.54z"/>
  <polygon class="fil3" points="39,24.62 38.97,25.22 39.02,25.19 39.16,25.08 39.37,24.91 39.65,24.69 39.98,24.44 40.35,24.15 40.74,23.84 41.15,23.53 41.56,23.21 41.96,22.9 42.16,22.75 42.34,22.61 42.51,22.47 42.68,22.35 42.83,22.23 42.97,22.13 43.1,22.04 43.2,21.96 43.29,21.89 43.35,21.85 43.38,21.83 43.32,21.85 43.07,21.09 42.96,21.15 42.89,21.19 42.82,21.24 42.73,21.31 42.61,21.39 42.49,21.49 42.35,21.59 42.19,21.71 42.03,21.84 41.85,21.97 41.67,22.12 41.47,22.26 41.07,22.57 40.66,22.89 40.25,23.21 39.86,23.52 39.49,23.81 39.16,24.06 38.88,24.28 38.67,24.45 38.53,24.55 38.48,24.59 38.45,25.2 38.48,24.59 38.12,24.88 38.45,25.2 "/>
  <path class="fil3" d="M39.9 33.66l0 0.06c0.35,-0.06 0.71,-0.13 1.06,-0.21l0.14 -0.23 0.14 -0.29 0.11 -0.3 0.08 -0.31 0.07 -0.33 0.04 -0.33 0.02 -0.34 0.01 -0.35 -0.02 -0.36 -0.03 -0.35 -0.05 -0.37 -0.06 -0.36 -0.07 -0.37 -0.09 -0.36 -0.1 -0.36 -0.11 -0.36 -0.13 -0.35 -0.13 -0.35 -0.15 -0.34 -0.15 -0.33 -0.16 -0.32 -0.17 -0.31 -0.17 -0.29 -0.19 -0.28 -0.18 -0.27 -0.2 -0.24 -0.2 -0.23 -0.21 -0.21 -0.55 0.58 0.17 0.17 0.17 0.2 0.17 0.21 0.17 0.24 0.16 0.25 0.16 0.27 0.16 0.28 0.15 0.3 0.14 0.31 0.13 0.31 0.13 0.32 0.11 0.33 0.11 0.34 0.09 0.33 0.09 0.34 0.07 0.34 0.05 0.33 0.04 0.33 0.03 0.32 0.01 0.32 0 0.31 -0.02 0.29 -0.03 0.29 -0.06 0.27 -0.07 0.25 -0.08 0.23 -0.11 0.22 -0.11 0.2 -0.14 0.18 -0.15 0.15 -0.18 0.14 -0.19 0.12 0.01 0.08c0.08,-0.01 0.17,-0.03 0.25,-0.04l0.02 -0.07z"/>
  <path class="fil3" d="M40.07 33.69l-0.17 -0.03 -0.02 0.07c0.06,-0.01 0.13,-0.02 0.19,-0.04z"/>
  <path class="fil3" d="M43.32 21.85l0 0 -0.32 -0.03 0.05 0.03 0.09 0.09 0.14 0.12 0.17 0.16 0.2 0.19 0.22 0.22 0.25 0.24 0.26 0.26 0.29 0.29 0.3 0.3 0.32 0.31 0.32 0.33 0.33 0.34 0.34 0.34 0.34 0.34 0.34 0.35 0.34 0.34 0.33 0.34 0.26 0.27c-0.04,-0.48 -0.14,-0.96 -0.29,-1.44l-0.07 -0.07 -0.34 -0.35 -0.34 -0.35 -0.34 -0.34 -0.33 -0.34 -0.33 -0.32 -0.31 -0.32 -0.3 -0.3 -0.29 -0.28 -0.27 -0.27 -0.25 -0.25 -0.23 -0.22 -0.2 -0.19 -0.17 -0.16 -0.15 -0.14 -0.12 -0.1 -0.1 -0.08 -0.39 -0.07 0 0 0.25 0.76z"/>
  <path class="fil6 str6" d="M128.97 165.55l7.01 -15.83c-3.5,-1.33 -10.23,-2.8 -17.5,-2.98l-7.65 4.38 3.56 10.88c7.3,0.27 10.66,2.02 14.58,3.55z"/>
  <path class="fil0" d="M134.37 153.34c-6.85,-1.62 -14.24,-2.11 -20.9,-2.12 -2.09,1.34 -0.35,2.4 0.17,5.47 2.24,-1.18 14.2,1.49 17.83,3.2l2.9 -6.55z"/>
  <path class="fil0 str0" d="M134.37 153.34c-6.85,-1.62 -14.24,-2.11 -20.9,-2.12 -2.09,1.34 -0.35,2.4 0.17,5.47 2.24,-1.18 14.2,1.49 17.83,3.2l2.9 -6.55z"/>
  <path class="fil1" d="M115.57 148.41l-1.38 3.71c3.3,-1 16.03,0.7 19.66,2.41l2.13 -4.81c-3.5,-1.33 -10.23,-2.8 -17.5,-2.98l-2.91 1.67z"/>
  <path class="fil1 str0" d="M115.57 148.41l-1.38 3.71c3.3,-1 16.03,0.7 19.66,2.41l2.13 -4.81c-3.5,-1.33 -10.23,-2.8 -17.5,-2.98l-2.91 1.67z"/>
  <path class="fil6 str6" d="M32.01 165.55l-7 -15.83c3.5,-1.33 10.23,-2.8 17.49,-2.98l7.65 4.38 -3.55 10.88c-7.31,0.27 -10.66,2.02 -14.59,3.55z"/>
  <path class="fil5 str6" d="M32.01 165.55l-7 -15.83c3.5,-1.33 10.23,-2.8 17.49,-2.98l7.65 4.38 -3.55 10.88c-7.31,0.27 -10.66,2.02 -14.59,3.55z"/>
  <path class="fil0 str0" d="M26.3 152.92c7.37,-1.72 15.33,-2.25 22.49,-2.26 2.27,1.42 0.4,2.54 -0.14,5.78 -2.42,-1.24 -15.27,1.57 -19.17,3.38l-3.18 -6.9z"/>
  <path class="fil1 str0" d="M47.24 147.32l1.54 4.16c-3.68,-1.12 -17.86,0.79 -21.9,2.71l-2.37 -5.4c3.89,-1.49 11.39,-3.15 19.48,-3.34l3.25 1.87z"/>
  <path class="fil6 str6" d="M44.22 166.66l7.48 -20.38 60.08 0 6.04 20.77c-11.85,6.3 -24.09,10.1 -36.56,9.75 -12.85,0 -30.12,-4.62 -37.04,-10.14z"/>
  <path class="fil5 str6" d="M44.22 166.66l7.48 -20.38 60.08 0 6.04 20.77c-11.85,6.3 -24.09,10.1 -36.56,9.75 -12.85,0 -30.12,-4.62 -37.04,-10.14z"/>
  <path class="fil0" d="M115.3 158.36l0.33 1.9c-18.93,10.48 -42.71,15.87 -68.91,-0.39l4.98 -13.59 60.08 0 3.52 12.08z"/>
  <path class="fil0 str0" d="M115.3 158.36l0.33 1.9c-18.93,10.48 -42.71,15.87 -68.91,-0.39l4.98 -13.59 60.08 0 3.52 12.08z"/>
  <path class="fil1" d="M113.85 153.39l0.11 1.25c-24.16,12.01 -41.07,13.07 -65.32,-0.02l3.06 -8.34 60.08 0 2.07 7.11z"/>
  <path class="fil1 str0" d="M113.85 153.39l0.11 1.25c-24.16,12.01 -41.07,13.07 -65.32,-0.02l3.06 -8.34 60.08 0 2.07 7.11z"/>
  <path class="fil1 str7" d="M17.08 84.73c0,-36.24 29.37,-65.61 65.6,-65.61 36.23,0 65.6,29.37 65.6,65.61 0,16.07 -5.78,30.79 -15.37,42.2 -12.04,14.31 -50.23,9.38 -50.23,23.41 -36.05,0 -65.6,-29.14 -65.6,-65.61z"/>
  <path class="fil5 str7" d="M17.08 84.73c0,-36.24 29.37,-65.61 65.6,-65.61 36.23,0 65.6,29.37 65.6,65.61 0,16.07 -5.78,30.79 -15.37,42.2 -12.04,14.31 -50.23,9.38 -50.23,23.41 -36.05,0 -65.6,-29.14 -65.6,-65.61z"/>
  <path class="fil4 str6" d="M49.15 42.82l66.36 0c2.66,-17.51 8.07,-25.12 16.24,-22.85 -5.21,-4.31 -11.12,-7.75 -17.73,-10.32 -2.41,0.11 -3.89,2.76 -3.89,2.76 -1,-6.57 -10.43,-9.85 -28.29,-9.84 -14.88,-0.3 -23.05,2.72 -24.51,9.07 0,0 -2.72,-3.92 -4.29,-3.22 -6.38,2.65 -12.35,6.04 -17.89,10.17 10.13,2.61 14.8,10.68 14,24.23z"/>
  <path class="fil5 str6" d="M49.24 42.82l66.36 0c2.66,-17.51 8.07,-25.12 16.24,-22.85 -5.21,-4.31 -11.12,-7.75 -17.73,-10.32 -2.4,0.11 -3.89,2.76 -3.89,2.76 -0.99,-6.57 -10.42,-9.85 -28.29,-9.84 -14.87,-0.3 -23.05,2.72 -24.51,9.07 0,0 -2.72,-3.92 -4.29,-3.22 -6.38,2.65 -12.34,6.04 -17.89,10.17 10.14,2.61 14.8,10.68 14,24.23z"/>
  <path class="fil1" d="M17.08 84.73c0,-36.24 29.37,-65.61 65.6,-65.61 36.23,0 65.6,29.37 65.6,65.61 0,16.07 -5.78,30.79 -15.37,42.2 -12.04,14.31 -50.23,9.38 -50.23,23.41 -36.05,0 -65.6,-29.14 -65.6,-65.61z"/>
  <path class="fil4" d="M148.28 84.73l-2.68 0 0 1.45 -0.05 1.43 -0.09 1.42 -0.1 1.43 -0.15 1.4 -0.17 1.4 -0.2 1.39 -0.24 1.38 -0.26 1.36 -0.3 1.36 -0.32 1.34 -0.35 1.34 -0.38 1.32 -0.41 1.32 -0.43 1.3 -0.46 1.28 -0.49 1.27 -0.51 1.26 -0.55 1.25 -0.57 1.23 -0.59 1.22 -0.62 1.2 -0.64 1.18 -0.68 1.17 -0.69 1.17 -0.71 1.13 -0.74 1.12 -0.76 1.11 -0.79 1.09 -0.8 1.07 -0.84 1.06 -0.84 1.03 0 0 2.04 1.72c9.59,-11.41 15.37,-26.13 15.37,-42.2z"/>
  <path class="fil4" d="M82.68 150.34l0 -2.68 -3.24 -0.08 -3.18 -0.24 -3.13 -0.4 -3.09 -0.54 -3.04 -0.71 -2.98 -0.84 -2.91 -0.98 -2.85 -1.12 -2.79 -1.25 -2.71 -1.39 -2.64 -1.51 -2.55 -1.63 -2.47 -1.74 -2.38 -1.86 -2.29 -1.97 -2.19 -2.09 -2.08 -2.18 -1.98 -2.28 -1.88 -2.37 -1.76 -2.46 -1.64 -2.56 -1.52 -2.63 -1.4 -2.72 -1.26 -2.78 -1.13 -2.87 -0.99 -2.93 -0.86 -2.99 -0.71 -3.06 -0.54 -3.11 -0.41 -3.16 -0.25 -3.21 -0.07 -3.27 0 0 -2.68 0c0,36.47 29.55,65.61 65.6,65.61z"/>
  <path class="fil4" d="M17.08 84.73l2.68 0 0.07 -3.25 0.24 -3.2 0.41 -3.15 0.55 -3.09 0.7 -3.05 0.85 -2.99 0.99 -2.92 1.12 -2.85 1.26 -2.78 1.39 -2.72 1.52 -2.64 1.64 -2.55 1.76 -2.46 1.86 -2.39 1.98 -2.27 2.09 -2.19 2.18 -2.09 2.28 -1.97 2.38 -1.87 2.47 -1.75 2.54 -1.65 2.65 -1.51 2.71 -1.39 2.78 -1.26 2.85 -1.12 2.94 -0.99 2.97 -0.86 3.05 -0.7 3.1 -0.54 3.14 -0.41 3.2 -0.24 3.25 -0.08 0 0 0 -2.68c-36.23,0 -65.6,29.37 -65.6,65.61z"/>
  <path class="fil4" d="M82.68 19.12l0 2.68 3.25 0.08 3.2 0.24 3.14 0.41 3.1 0.54 3.05 0.7 2.97 0.86 2.94 0.99 2.85 1.12 2.78 1.26 2.71 1.39 2.65 1.51 2.54 1.65 2.47 1.75 2.38 1.87 2.28 1.97 2.18 2.09 2.09 2.19 1.98 2.27 1.86 2.39 1.76 2.46 1.64 2.55 1.52 2.64 1.39 2.72 1.26 2.78 1.12 2.85 0.99 2.92 0.85 2.99 0.7 3.05 0.55 3.09 0.4 3.15 0.25 3.2 0.07 3.25 0 0 2.68 0c0,-36.24 -29.37,-65.61 -65.6,-65.61z"/>
  <path class="fil2" d="M63.75 10.33c0,-1.74 1.41,-3.15 3.15,-3.15 0.14,0 0.27,0.01 0.4,0.03l4.56 0 0 2.29c-0.17,0.37 -3.08,3.98 -4.96,3.98 -1.74,0 -3.15,-1.41 -3.15,-3.15z"/>
  <polygon class="fil3" points="66.9,6.78 66.9,6.78 66.72,6.79 66.54,6.8 66.36,6.82 66.19,6.85 66.02,6.89 65.85,6.94 65.68,7 65.52,7.06 65.36,7.13 65.21,7.21 65.06,7.3 64.92,7.39 64.78,7.49 64.64,7.59 64.51,7.71 64.39,7.82 64.27,7.95 64.16,8.08 64.06,8.21 63.96,8.35 63.87,8.49 63.78,8.64 63.7,8.79 63.63,8.95 63.57,9.11 63.51,9.28 63.46,9.45 63.42,9.62 63.39,9.79 63.37,9.97 63.35,10.15 63.35,10.33 64.16,10.33 64.16,10.19 64.17,10.05 64.19,9.91 64.21,9.78 64.24,9.65 64.28,9.52 64.32,9.39 64.37,9.26 64.42,9.14 64.49,9.02 64.55,8.91 64.62,8.8 64.7,8.69 64.78,8.58 64.87,8.49 64.96,8.39 65.06,8.3 65.15,8.21 65.26,8.13 65.37,8.05 65.48,7.98 65.59,7.92 65.71,7.86 65.83,7.8 65.96,7.75 66.09,7.71 66.22,7.67 66.35,7.64 66.48,7.62 66.62,7.6 66.76,7.59 66.9,7.59 66.9,7.59 "/>
  <polygon class="fil3" points="67.45,6.81 67.54,6.81 67.49,6.8 67.45,6.8 67.39,6.8 67.35,6.8 67.3,6.79 67.25,6.79 67.2,6.79 67.16,6.79 67.11,6.79 67.06,6.79 67.01,6.78 66.96,6.78 66.91,6.78 66.87,6.78 66.82,6.78 66.77,6.78 66.77,7.59 66.8,7.59 66.84,7.59 66.88,7.59 66.92,7.59 66.95,7.59 67,7.59 67.03,7.59 67.07,7.59 67.11,7.59 67.14,7.6 67.18,7.6 67.22,7.6 67.26,7.6 67.29,7.61 67.33,7.61 67.37,7.61 67.45,7.61 "/>
  <polygon class="fil3" points="72.26,7.21 71.86,6.81 67.3,6.81 67.3,7.61 71.86,7.61 72.26,7.21 72.26,7.21 72.26,6.81 71.86,6.81 "/>
  <polygon class="fil3" points="72.23,9.67 72.26,9.5 72.26,7.21 71.46,7.21 71.46,9.5 "/>
  <polygon class="fil3" points="66.9,13.88 66.9,13.88 67.13,13.87 67.35,13.83 67.57,13.78 67.79,13.7 68.01,13.61 68.23,13.5 68.45,13.38 68.66,13.25 68.88,13.11 69.09,12.96 69.3,12.8 69.51,12.63 69.71,12.46 69.92,12.28 70.11,12.1 70.3,11.92 70.49,11.74 70.67,11.55 70.84,11.37 71.01,11.2 71.17,11.02 71.32,10.85 71.46,10.69 71.59,10.54 71.71,10.39 71.82,10.26 71.91,10.13 72,10.02 72.07,9.92 72.13,9.83 72.18,9.75 72.23,9.67 71.5,9.34 71.49,9.34 71.46,9.39 71.42,9.45 71.36,9.54 71.28,9.64 71.19,9.76 71.09,9.89 70.97,10.02 70.85,10.17 70.71,10.32 70.57,10.49 70.42,10.65 70.26,10.82 70.1,11 69.92,11.17 69.75,11.34 69.56,11.51 69.38,11.68 69.19,11.85 69,12.01 68.81,12.17 68.62,12.31 68.42,12.45 68.23,12.57 68.04,12.69 67.86,12.79 67.68,12.88 67.51,12.95 67.34,13.01 67.18,13.05 67.04,13.07 66.9,13.08 66.9,13.08 "/>
  <polygon class="fil3" points="63.35,10.33 63.35,10.33 63.35,10.51 63.37,10.7 63.39,10.87 63.42,11.05 63.46,11.22 63.51,11.39 63.57,11.55 63.63,11.71 63.7,11.87 63.78,12.03 63.87,12.17 63.96,12.32 64.06,12.46 64.16,12.59 64.27,12.72 64.39,12.84 64.51,12.96 64.64,13.07 64.78,13.18 64.92,13.28 65.06,13.37 65.21,13.45 65.36,13.53 65.52,13.61 65.68,13.67 65.85,13.72 66.02,13.77 66.19,13.81 66.36,13.84 66.54,13.87 66.72,13.88 66.9,13.88 66.9,13.08 66.76,13.08 66.62,13.07 66.48,13.05 66.35,13.02 66.22,12.99 66.09,12.96 65.96,12.91 65.83,12.86 65.71,12.81 65.59,12.75 65.48,12.68 65.37,12.61 65.26,12.54 65.15,12.45 65.06,12.37 64.96,12.28 64.87,12.18 64.78,12.08 64.7,11.98 64.62,11.87 64.55,11.76 64.49,11.64 64.42,11.52 64.37,11.4 64.32,11.28 64.28,11.15 64.24,11.02 64.21,10.89 64.19,10.75 64.17,10.61 64.16,10.48 64.16,10.33 64.16,10.33 "/>
  <path class="fil2" d="M102.12 10.33c0,-1.74 -1.41,-3.15 -3.15,-3.15 -0.13,0 -0.26,0.01 -0.39,0.03l-4.57 0 0 2.29c0.17,0.37 3.08,3.98 4.96,3.98 1.74,0 3.15,-1.41 3.15,-3.15z"/>
  <polygon class="fil3" points="98.97,7.59 98.97,7.59 99.12,7.59 99.25,7.6 99.39,7.62 99.53,7.64 99.66,7.67 99.79,7.71 99.92,7.75 100.04,7.8 100.16,7.86 100.28,7.92 100.4,7.98 100.51,8.05 100.62,8.13 100.72,8.21 100.82,8.3 100.92,8.39 101.01,8.49 101.09,8.58 101.17,8.69 101.25,8.8 101.32,8.91 101.39,9.02 101.45,9.14 101.5,9.26 101.55,9.39 101.6,9.52 101.63,9.65 101.66,9.78 101.69,9.91 101.71,10.05 101.72,10.19 101.72,10.33 102.52,10.33 102.52,10.15 102.51,9.97 102.48,9.79 102.45,9.62 102.41,9.45 102.36,9.28 102.31,9.11 102.25,8.95 102.17,8.79 102.09,8.64 102.01,8.49 101.92,8.35 101.82,8.21 101.71,8.08 101.6,7.95 101.48,7.82 101.36,7.71 101.23,7.59 101.1,7.49 100.96,7.39 100.81,7.3 100.66,7.21 100.51,7.13 100.35,7.06 100.19,7 100.03,6.94 99.86,6.89 99.69,6.85 99.51,6.82 99.34,6.8 99.16,6.79 98.97,6.78 98.97,6.78 "/>
  <polygon class="fil3" points="98.45,7.61 98.53,7.61 98.57,7.61 98.61,7.61 98.64,7.6 98.68,7.6 98.72,7.6 98.75,7.6 98.79,7.59 98.83,7.59 98.86,7.59 98.89,7.59 98.94,7.59 98.97,7.59 99.01,7.59 99.05,7.59 99.08,7.59 99.12,7.59 99.12,6.78 99.07,6.78 99.02,6.78 98.98,6.78 98.93,6.78 98.88,6.78 98.84,6.79 98.79,6.79 98.74,6.79 98.7,6.79 98.65,6.79 98.6,6.79 98.56,6.8 98.51,6.8 98.46,6.8 98.42,6.8 98.37,6.81 98.45,6.81 "/>
  <polygon class="fil3" points="93.61,7.21 94.01,7.61 98.58,7.61 98.58,6.81 94.01,6.81 93.61,7.21 94.01,6.81 93.61,6.81 "/>
  <polygon class="fil3" points="93.65,9.67 94.42,9.5 94.42,7.21 93.61,7.21 93.61,9.5 "/>
  <polygon class="fil3" points="98.97,13.08 98.97,13.08 98.84,13.07 98.69,13.05 98.53,13.01 98.37,12.95 98.2,12.88 98.02,12.79 97.83,12.69 97.64,12.57 97.45,12.45 97.26,12.31 97.07,12.17 96.88,12.01 96.69,11.85 96.5,11.68 96.31,11.51 96.13,11.34 95.95,11.17 95.78,11 95.62,10.82 95.46,10.65 95.3,10.49 95.16,10.32 95.03,10.17 94.9,10.02 94.79,9.89 94.69,9.76 94.6,9.64 94.52,9.54 94.46,9.45 94.41,9.39 94.38,9.34 94.38,9.34 93.65,9.67 93.69,9.75 93.74,9.83 93.8,9.92 93.88,10.02 93.96,10.13 94.06,10.26 94.17,10.39 94.29,10.54 94.42,10.69 94.56,10.85 94.71,11.02 94.87,11.2 95.03,11.37 95.21,11.55 95.39,11.74 95.57,11.92 95.77,12.1 95.96,12.28 96.16,12.46 96.37,12.63 96.58,12.8 96.79,12.96 97,13.11 97.21,13.25 97.43,13.38 97.65,13.5 97.87,13.61 98.08,13.7 98.31,13.78 98.53,13.83 98.75,13.87 98.97,13.88 98.97,13.88 "/>
  <polygon class="fil3" points="101.72,10.36 101.72,10.36 101.72,10.51 101.71,10.64 101.69,10.78 101.66,10.92 101.63,11.05 101.6,11.18 101.55,11.31 101.5,11.43 101.45,11.55 101.39,11.67 101.32,11.79 101.25,11.9 101.17,12.01 101.09,12.11 101.01,12.21 100.92,12.3 100.82,12.4 100.72,12.48 100.62,12.56 100.51,12.64 100.4,12.71 100.28,12.78 100.16,12.84 100.04,12.89 99.92,12.94 99.79,12.99 99.66,13.02 99.53,13.05 99.39,13.08 99.25,13.1 99.12,13.1 98.97,13.11 98.97,13.91 99.15,13.91 99.34,13.89 99.51,13.87 99.69,13.84 99.86,13.8 100.03,13.75 100.19,13.7 100.35,13.63 100.51,13.56 100.67,13.48 100.81,13.4 100.96,13.31 101.1,13.21 101.23,13.1 101.36,12.99 101.48,12.87 101.6,12.75 101.71,12.62 101.82,12.49 101.92,12.35 102.01,12.2 102.09,12.05 102.17,11.9 102.25,11.74 102.31,11.58 102.36,11.42 102.41,11.25 102.45,11.08 102.48,10.9 102.51,10.72 102.52,10.54 102.52,10.36 102.52,10.36 "/>
  <path class="fil4" d="M64.4 4.67c5.64,-0.67 8.77,6.97 2.76,8.69 10.66,-2.45 21.21,-2.41 31.64,0.12 -5.31,-1.32 -3.71,-9.2 5.55,-7.64 -4.69,-2.18 -12.19,-3.28 -22.51,-3.27 -7.54,-0.15 -13.35,0.55 -17.44,2.1z"/>
  <path class="fil3" d="M67.06 13.06l0.2 0.79 0.58 -0.2 0.52 -0.23 0.48 -0.27 0.42 -0.3 0.37 -0.33 0.32 -0.36 0.27 -0.39 0.21 -0.4 0.17 -0.42 0.12 -0.43 0.07 -0.44 0.02 -0.44 -0.02 -0.44 -0.07 -0.44 -0.1 -0.44 -0.14 -0.43 -0.18 -0.42 -0.22 -0.4 -0.25 -0.4 -0.28 -0.37 -0.32 -0.35 -0.35 -0.33 -0.37 -0.3 -0.41 -0.27 -0.43 -0.24 -0.45 -0.21 -0.48 -0.16 -0.51 -0.13 -0.52 -0.08 -0.11 -0.01c-0.52,0.17 -1.01,0.34 -1.48,0.53l0.05 0.34 0.5 -0.06 0.49 -0.02 0.47 0.03 0.45 0.07 0.43 0.11 0.41 0.14 0.4 0.18 0.37 0.2 0.35 0.24 0.32 0.26 0.3 0.28 0.27 0.3 0.24 0.33 0.22 0.33 0.18 0.35 0.16 0.35 0.12 0.37 0.09 0.36 0.05 0.37 0.01 0.36 -0.01 0.36 -0.06 0.35 -0.09 0.34 -0.13 0.33 -0.17 0.32 -0.22 0.31 -0.25 0.29 -0.31 0.27 -0.35 0.25 -0.4 0.23 -0.46 0.2 -0.51 0.17 0.2 0.79 -0.18 -0.79z"/>
  <polygon class="fil3" points="99.06,13.94 99.26,13.16 98.26,12.93 97.27,12.71 96.27,12.51 95.27,12.33 94.27,12.15 93.27,11.99 92.27,11.85 91.28,11.72 90.27,11.61 89.27,11.51 88.27,11.42 87.27,11.35 86.26,11.3 85.26,11.26 84.25,11.23 83.25,11.22 82.24,11.22 81.24,11.24 80.23,11.28 79.22,11.32 78.21,11.39 77.2,11.46 76.19,11.56 75.18,11.66 74.17,11.78 73.15,11.92 72.14,12.07 71.13,12.23 70.11,12.41 69.1,12.61 68.08,12.82 67.07,13.04 67.25,13.82 68.25,13.6 69.26,13.4 70.26,13.2 71.27,13.03 72.27,12.86 73.27,12.71 74.27,12.58 75.27,12.46 76.27,12.35 77.27,12.26 78.27,12.19 79.26,12.13 80.26,12.08 81.26,12.04 82.25,12.03 83.25,12.02 84.24,12.04 85.23,12.06 86.23,12.1 87.22,12.15 88.21,12.22 89.2,12.31 90.19,12.41 91.18,12.52 92.17,12.65 93.15,12.79 94.14,12.94 95.13,13.11 96.11,13.3 97.1,13.5 98.08,13.71 99.07,13.94 99.26,13.16 "/>
  <path class="fil3" d="M104.04 5.86l0.12 -0.1c-0.37,-0.17 -0.75,-0.33 -1.15,-0.48l-0.21 -0.02 -0.79 -0.02 -0.74 0.02 -0.7 0.07 -0.66 0.12 -0.61 0.16 -0.58 0.19 -0.52 0.23 -0.49 0.26 -0.44 0.3 -0.39 0.31 -0.35 0.35 -0.3 0.36 -0.26 0.38 -0.21 0.4 -0.17 0.41 -0.12 0.42 -0.07 0.42 -0.02 0.42 0.02 0.42 0.08 0.41 0.12 0.4 0.16 0.39 0.21 0.37 0.27 0.35 0.3 0.33 0.35 0.3 0.39 0.26 0.44 0.23 0.47 0.2 0.52 0.15 0.19 -0.78 -0.44 -0.13 -0.4 -0.16 -0.37 -0.2 -0.32 -0.21 -0.28 -0.24 -0.24 -0.26 -0.2 -0.28 -0.17 -0.29 -0.13 -0.3 -0.09 -0.31 -0.06 -0.33 -0.02 -0.32 0.02 -0.34 0.06 -0.33 0.09 -0.33 0.13 -0.33 0.17 -0.32 0.22 -0.31 0.25 -0.31 0.29 -0.29 0.34 -0.27 0.37 -0.25 0.43 -0.23 0.46 -0.2 0.51 -0.17 0.56 -0.15 0.6 -0.1 0.64 -0.07 0.69 -0.02 0.74 0.02 0.79 0.07 0.83 0.12 0.3 -0.25c-0.09,-0.05 -0.19,-0.1 -0.29,-0.14l-0.34 0zm0.63 0.14l-0.3 0.25 0.47 0.08 0 -0.25c-0.05,-0.03 -0.11,-0.05 -0.17,-0.08z"/>
  <path class="fil3" d="M104.04 5.7l0 0.16 0.34 0c-0.11,-0.06 -0.23,-0.11 -0.34,-0.16z"/>
  <path class="fil3" d="M64.18 5.11l0.34 -0.4 0 -0.08c-0.21,0.07 -0.42,0.16 -0.62,0.24l0.28 0.24 -0.28 -0.24c-0.06,0.02 -0.13,0.05 -0.19,0.08l0 0.23 0.47 -0.07z"/>
  <polygon class="fil4 str6" points="54.2,129.12 42.63,135.8 31.07,129.12 31.07,115.77 42.63,109.09 54.2,115.77 "/>
  <polygon class="fil4 str6" points="108.9,129.12 120.46,135.8 132.03,129.12 132.03,115.77 120.46,109.09 108.9,115.77 "/>
  <path class="fil7" d="M29.22 85.12c0,-29.3 23.76,-53.06 53.06,-53.06 29.31,0 53.07,23.76 53.07,53.06 0,29.31 -23.76,53.07 -53.07,53.07 -29.3,0 -53.06,-23.76 -53.06,-53.07z"/>
  <polygon class="fil4" points="43.53,56.48 120.99,56.48 120.99,116.29 43.53,116.29 "/>
  <path class="fil2 str0" d="M46.37 52.02c7.78,5.82 18.01,11.77 35.54,11.77 17.77,0 21.65,-4.05 35.3,-11.65l2.52 3.36 0 52c-0.23,3.43 -0.67,5.83 -1.32,7.21l-73.13 0c-0.91,-2.87 -1.15,-5.63 -0.72,-8.29l0 -49.96 1.81 -4.44z"/>
  <path class="fil1 str0" d="M46.37 52.22l0 52.01c12.24,6.15 35.46,-4.18 35.46,12.06l0 -54.61c-0.76,-12.3 -24.18,-4.38 -35.46,-9.46z"/>
  <path class="fil3" d="M43.17 145.34c-3.65,1.67 -9.58,-0.73 -11.15,-2.02 -1.6,-1.25 -3.47,-2.66 -5.23,-4.19 2.73,0.67 7.36,-1.24 7.74,-1.66 0.42,-0.41 2.11,-1.44 3.15,-1.69 1.05,3.67 7.63,5.37 13.9,3.63 -3.16,1.41 -5.64,2.92 -8.41,5.93zm-12.06 -1.97c6.41,5.06 12.91,4.39 17.21,-1.14 1.01,-1.22 3.02,-2.02 4.14,-3.01l-0.11 -0.05c-3.69,1.26 -12.67,1.68 -15.34,-4.2 -1.22,0.28 -3.22,1.49 -3.7,1.99 -0.44,0.46 -4.68,2.41 -7.92,1.62 2.08,1.78 3.83,3.28 5.72,4.79z"/>
  <path class="fil1 str0" d="M117.25 52.22l0 52.01c-12.24,6.15 -35.46,-4.18 -35.46,12.06l0 -54.61c0.76,-12.3 24.18,-4.38 35.46,-9.46z"/>
  <path class="fil5 str0" d="M46.44 104.25c-0.9,0.58 -1.5,1.3 -1.8,2.16"/>
  <path class="fil5 str0" d="M117.37 104.36c1.13,1.07 1.9,2.41 2.32,4"/>
  <polygon class="fil4 str6" points="97.37,149.12 108.94,155.8 120.5,149.12 120.5,135.77 108.94,129.09 97.37,135.77 "/>
  <path class="fil5 str0" d="M47.46 29.31c19.98,-13.6 48.2,-14.34 71.4,0.2"/>
  <path class="fil5" d="M27.88 85.12c0,-30.04 24.36,-54.4 54.4,-54.4 30.05,0 54.4,24.36 54.4,54.4 0,30.05 -24.35,54.4 -54.4,54.4 -30.04,0 -54.4,-24.35 -54.4,-54.4z"/>
  <path class="fil5 str8" d="M47.78 28.91c0,0 30.94,-22.68 71.2,0.42"/>
  <ellipse class="fil5" cx="82.5" cy="84.94" rx="54.55" ry="54.51"/>
  <path class="fil8" d="M30.93 107.23c0.24,-0.1 0.38,-0.21 0.44,-0.36 0.05,-0.14 0.05,-0.3 -0.02,-0.47 -0.07,-0.17 -0.17,-0.29 -0.31,-0.36 -0.14,-0.07 -0.32,-0.05 -0.56,0.04l-3.51 1.39c-0.24,0.09 -0.38,0.21 -0.44,0.35 -0.06,0.14 -0.05,0.3 0.02,0.47 0.07,0.18 0.17,0.3 0.31,0.36 0.14,0.07 0.32,0.06 0.56,-0.04l3.51 -1.38zm-3.01 2.46c-0.53,0.21 -0.99,0.22 -1.39,0.05 -0.39,-0.18 -0.7,-0.54 -0.91,-1.08 -0.21,-0.54 -0.24,-1.01 -0.07,-1.41 0.17,-0.4 0.52,-0.7 1.05,-0.91l3.38 -1.34c0.53,-0.21 0.99,-0.22 1.38,-0.04 0.4,0.17 0.7,0.53 0.92,1.07 0.21,0.55 0.23,1.02 0.07,1.41 -0.17,0.4 -0.52,0.71 -1.05,0.92l-3.38 1.33zm0.5 -8.1l-5 0.58 -0.45 -1.58 6.73 -1.92 0.31 1.08 -4.83 1.37 5.05 -0.58 0.31 1.08 -4.52 2.2 4.76 -1.35 0.29 1 -6.74 1.91 -0.45 -1.59 4.54 -2.2zm-2.28 -6.76l0.91 -0.21c0.55,-0.13 1,-0.08 1.36,0.14 0.36,0.23 0.61,0.62 0.74,1.19 0.13,0.57 0.08,1.03 -0.15,1.39 -0.22,0.36 -0.61,0.6 -1.17,0.73l-3.54 0.82c-0.55,0.13 -1.01,0.08 -1.37,-0.14 -0.37,-0.23 -0.61,-0.62 -0.74,-1.19 -0.14,-0.57 -0.09,-1.03 0.14,-1.39 0.23,-0.36 0.62,-0.6 1.17,-0.73l0.66 -0.15 0.26 1.09 -0.73 0.17c-0.25,0.06 -0.41,0.15 -0.49,0.28 -0.07,0.13 -0.09,0.29 -0.05,0.47 0.04,0.19 0.13,0.32 0.25,0.4 0.13,0.09 0.32,0.1 0.56,0.05l3.69 -0.85c0.25,-0.06 0.41,-0.16 0.48,-0.29 0.08,-0.13 0.09,-0.29 0.05,-0.47 -0.04,-0.18 -0.13,-0.31 -0.25,-0.4 -0.12,-0.09 -0.31,-0.1 -0.55,-0.04l-0.98 0.22 -0.25 -1.09zm-3 -4.47c0.71,-0.09 1.21,0.11 1.5,0.6 0.08,-0.32 0.24,-0.54 0.48,-0.69 0.24,-0.14 0.54,-0.23 0.9,-0.28l0.62 -0.08c0.14,-0.02 0.24,-0.04 0.31,-0.07 0.06,-0.03 0.11,-0.07 0.13,-0.12 0.02,-0.05 0.03,-0.11 0.02,-0.18 0,-0.07 -0.02,-0.15 -0.03,-0.24l-0.01 -0.06 1 -0.13 0.06 0.49c0.05,0.37 0,0.67 -0.16,0.9 -0.16,0.24 -0.39,0.38 -0.69,0.42l-1.14 0.14c-0.33,0.04 -0.54,0.15 -0.66,0.33 -0.11,0.17 -0.15,0.39 -0.11,0.66l0.05 0.41 3.02 -0.38 0.15 1.17 -6.94 0.89 -0.15 -1.18 2.93 -0.37 -0.06 -0.46c-0.03,-0.22 -0.11,-0.41 -0.23,-0.56 -0.13,-0.15 -0.33,-0.21 -0.61,-0.17l-1.19 0.15c-0.3,0.03 -0.55,-0.04 -0.77,-0.23 -0.21,-0.19 -0.34,-0.47 -0.38,-0.83l-0.06 -0.49 0.99 -0.12 0.01 0.05c0.01,0.09 0.02,0.17 0.03,0.24 0,0.07 0.03,0.13 0.06,0.17 0.04,0.04 0.09,0.07 0.16,0.08 0.08,0.01 0.18,0.01 0.32,-0.01l0.45 -0.05zm4.79 -6.21l0.03 1.2 -1.26 0.23 0.04 1.46 1.27 0.17 0.03 1.09 -7.03 -1.03 -0.04 -1.73 6.96 -1.39zm-2.15 2.76l-0.03 -1.14 -3.52 0.66 3.55 0.48zm0.27 -4.23c-0.37,-0.03 -0.67,-0.11 -0.92,-0.24 -0.25,-0.13 -0.42,-0.36 -0.51,-0.67 -0.26,0.51 -0.75,0.73 -1.47,0.68l-0.55 -0.04c-0.54,-0.04 -0.93,-0.21 -1.17,-0.51 -0.25,-0.3 -0.35,-0.76 -0.3,-1.37l0.14 -1.8 6.97 0.54 -0.09 1.18 -2.84 -0.22 -0.03 0.41c-0.02,0.27 0.03,0.48 0.15,0.61 0.13,0.13 0.35,0.21 0.68,0.23l0.95 0.08c0.29,0.02 0.53,0.13 0.7,0.34 0.17,0.21 0.24,0.55 0.2,1.02l-0.03 0.39 -0.99 -0.07 0 -0.07c0.01,-0.13 -0.01,-0.24 -0.06,-0.31 -0.05,-0.08 -0.19,-0.13 -0.41,-0.15l-0.42 -0.03zm-3.92 -2.12c-0.02,0.21 0.03,0.37 0.13,0.47 0.11,0.11 0.29,0.17 0.54,0.19l0.69 0.05c0.28,0.02 0.47,-0.02 0.59,-0.14 0.12,-0.12 0.18,-0.29 0.2,-0.51l0.03 -0.46 -2.14 -0.17 -0.04 0.57zm7.26 -8.45l-0.21 1.18 -1.29 -0.03 -0.25 1.44 1.21 0.42 -0.19 1.08 -6.68 -2.42 0.31 -1.71 7.1 0.04zm-2.66 2.27l0.2 -1.12 -3.58 -0.06 3.38 1.18zm-0.91 -7.95c0.7,0.19 1.08,0.57 1.15,1.14 0.19,-0.26 0.43,-0.41 0.71,-0.44 0.27,-0.04 0.59,-0.01 0.94,0.09l0.6 0.17c0.13,0.04 0.24,0.06 0.31,0.05 0.07,0 0.13,-0.02 0.17,-0.05 0.04,-0.04 0.07,-0.09 0.09,-0.16 0.02,-0.06 0.04,-0.14 0.07,-0.23l0.02 -0.06 0.96 0.27 -0.14 0.48c-0.09,0.35 -0.26,0.61 -0.5,0.76 -0.24,0.16 -0.51,0.2 -0.8,0.11l-1.1 -0.31c-0.32,-0.09 -0.56,-0.08 -0.73,0.04 -0.17,0.12 -0.3,0.31 -0.37,0.57l-0.11 0.39 2.93 0.84 -0.32 1.14 -6.74 -1.91 0.33 -1.15 2.84 0.81 0.12 -0.45c0.06,-0.21 0.07,-0.41 0.01,-0.6 -0.06,-0.19 -0.22,-0.32 -0.49,-0.4l-1.16 -0.33c-0.28,-0.08 -0.49,-0.25 -0.61,-0.51 -0.13,-0.26 -0.14,-0.56 -0.03,-0.91l0.13 -0.47 0.96 0.27 -0.01 0.05c-0.03,0.09 -0.05,0.17 -0.07,0.24 -0.01,0.06 -0.02,0.12 0,0.18 0.02,0.05 0.05,0.1 0.12,0.14 0.06,0.04 0.16,0.07 0.29,0.11l0.43 0.13zm6.86 -3.83l-0.44 1.12 -1.25 -0.28 -0.54 1.36 1.11 0.65 -0.4 1.02 -6.07 -3.7 0.64 -1.61 6.95 1.44zm-3.06 1.71l0.42 -1.07 -3.5 -0.76 3.08 1.83zm3.98 -3.52c-0.03,0.05 -0.04,0.09 -0.03,0.13 0.01,0.03 0.04,0.07 0.09,0.11 0.04,0.03 0.11,0.08 0.2,0.13 0.09,0.05 0.21,0.11 0.35,0.18l-0.45 0.89 -1.6 -0.83 0.11 -0.22c0.06,-0.36 -0.03,-0.7 -0.29,-1.01 -0.25,-0.3 -0.68,-0.61 -1.27,-0.91l-3.32 -1.71 1.51 -2.93 5.34 2.73 0.22 -0.44 1.6 0.82 -0.45 0.88c-0.14,-0.07 -0.26,-0.13 -0.35,-0.17 -0.1,-0.04 -0.17,-0.08 -0.23,-0.09 -0.06,-0.02 -0.11,-0.02 -0.14,0 -0.04,0.02 -0.07,0.05 -0.09,0.09l-1.2 2.35zm-2.37 -2.5c0.23,0.11 0.44,0.24 0.64,0.39 0.2,0.15 0.38,0.3 0.53,0.46 0.15,0.15 0.27,0.31 0.36,0.45 0.09,0.15 0.14,0.27 0.14,0.38l0.79 -1.56 -4.44 -2.28 -0.47 0.9 2.45 1.26zm1.94 -4.93l0.88 -1.37 0.84 0.54 -0.88 1.37 1.72 1.11 1.11 -1.73 0.84 0.54 -1.75 2.73 -5.89 -3.78 1.75 -2.73 0.84 0.54 -1.1 1.73 1.64 1.05zm5.08 -3.63l-3.41 -3.71 1.03 -1.29 5.5 4.32 -0.7 0.88 -3.94 -3.1 3.43 3.75 -0.69 0.88 -4.44 -2.36 3.89 3.06 -0.64 0.81 -5.5 -4.33 1.02 -1.29 4.45 2.38zm4.45 -2.04l-0.6 0.62 -5.06 -4.83 0.73 -0.76 3.03 2.89 -1.76 -4.23 0.6 -0.62 5.06 4.83 -0.73 0.77 -2.88 -2.74 1.61 4.07zm1.83 -4.53c-0.24,-0.27 -0.4,-0.55 -0.49,-0.81 -0.08,-0.27 -0.04,-0.55 0.12,-0.84 -0.55,0.18 -1.06,-0.01 -1.53,-0.55l-0.36 -0.42c-0.35,-0.41 -0.51,-0.8 -0.47,-1.19 0.03,-0.38 0.28,-0.78 0.75,-1.18l1.36 -1.18 4.58 5.29 -0.9 0.78 -1.86 -2.15 -0.31 0.26c-0.21,0.18 -0.31,0.36 -0.32,0.54 0,0.18 0.1,0.4 0.31,0.65l0.63 0.71c0.19,0.23 0.28,0.48 0.25,0.75 -0.02,0.26 -0.21,0.55 -0.57,0.86l-0.3 0.26 -0.65 -0.76 0.05 -0.04c0.1,-0.09 0.16,-0.17 0.18,-0.27 0.02,-0.09 -0.05,-0.22 -0.2,-0.39l-0.27 -0.32zm-1.29 -4.26c-0.16,0.14 -0.24,0.28 -0.24,0.43 0,0.15 0.08,0.32 0.25,0.51l0.45 0.52c0.18,0.21 0.36,0.32 0.52,0.32 0.17,-0.01 0.34,-0.08 0.5,-0.23l0.36 -0.3 -1.41 -1.62 -0.43 0.37zm6.85 -4.33c-0.14,-0.22 -0.28,-0.34 -0.43,-0.36 -0.15,-0.03 -0.3,0.01 -0.46,0.11 -0.16,0.1 -0.25,0.22 -0.29,0.37 -0.04,0.15 0.01,0.33 0.14,0.54l0.41 0.63 -0.95 0.61 -0.36 -0.57c-0.31,-0.48 -0.42,-0.93 -0.33,-1.34 0.09,-0.42 0.38,-0.79 0.87,-1.1 0.49,-0.32 0.94,-0.43 1.36,-0.33 0.41,0.09 0.77,0.38 1.08,0.86l1.96 3.06c0.31,0.48 0.41,0.92 0.33,1.34 -0.09,0.42 -0.38,0.78 -0.87,1.1 -0.49,0.31 -0.94,0.42 -1.36,0.33 -0.41,-0.09 -0.77,-0.38 -1.07,-0.85l-0.51 -0.79 0.95 -0.6 0.54 0.84c0.13,0.21 0.28,0.33 0.42,0.36 0.15,0.02 0.31,-0.02 0.46,-0.12 0.16,-0.1 0.26,-0.22 0.3,-0.37 0.04,-0.14 -0.01,-0.32 -0.15,-0.54l-0.78 -1.21 -0.82 0.53 -0.54 -0.85 0.82 -0.52 -0.72 -1.13zm5.62 -2.81c0.32,0.64 0.3,1.18 -0.06,1.62 0.32,-0.04 0.59,0.03 0.81,0.21 0.21,0.18 0.4,0.43 0.57,0.76l0.28 0.55c0.07,0.12 0.12,0.21 0.18,0.26 0.05,0.06 0.1,0.09 0.15,0.09 0.06,0.01 0.12,-0.01 0.18,-0.04 0.06,-0.03 0.13,-0.07 0.21,-0.11l0.06 -0.03 0.46 0.89 -0.44 0.23c-0.33,0.17 -0.63,0.22 -0.91,0.15 -0.28,-0.07 -0.48,-0.24 -0.62,-0.5l-0.52 -1.03c-0.15,-0.29 -0.33,-0.46 -0.53,-0.5 -0.2,-0.05 -0.42,-0.01 -0.67,0.11l-0.36 0.19 1.39 2.71 -1.06 0.55 -3.19 -6.23 1.06 -0.54 1.34 2.62 0.42 -0.21c0.19,-0.1 0.34,-0.24 0.44,-0.41 0.1,-0.17 0.09,-0.38 -0.04,-0.63l-0.55 -1.07c-0.13,-0.26 -0.15,-0.53 -0.04,-0.8 0.1,-0.26 0.32,-0.48 0.65,-0.64l0.43 -0.22 0.46 0.89 -0.05 0.02c-0.09,0.05 -0.16,0.08 -0.22,0.11 -0.06,0.03 -0.1,0.07 -0.13,0.12 -0.03,0.05 -0.04,0.11 -0.02,0.18 0.01,0.07 0.05,0.17 0.11,0.3l0.21 0.4zm3.96 1.91c0.11,0.23 0.23,0.37 0.38,0.42 0.14,0.05 0.3,0.03 0.47,-0.04 0.17,-0.08 0.28,-0.19 0.34,-0.33 0.06,-0.14 0.04,-0.33 -0.07,-0.56l-1.55 -3.44c-0.11,-0.23 -0.23,-0.37 -0.37,-0.42 -0.15,-0.05 -0.31,-0.03 -0.48,0.05 -0.17,0.07 -0.28,0.18 -0.34,0.32 -0.06,0.14 -0.04,0.33 0.07,0.56l1.55 3.44zm-2.61 -2.89c-0.23,-0.52 -0.27,-0.98 -0.11,-1.38 0.16,-0.4 0.5,-0.73 1.03,-0.97 0.53,-0.24 1,-0.28 1.41,-0.13 0.41,0.15 0.73,0.48 0.96,1l1.5 3.31c0.23,0.52 0.27,0.98 0.11,1.38 -0.16,0.4 -0.5,0.73 -1.03,0.97 -0.53,0.24 -1,0.28 -1.41,0.13 -0.4,-0.15 -0.72,-0.48 -0.96,-0.99l-1.5 -3.32zm7.57 2.66l-1.12 0.38 -2.24 -6.63 1.12 -0.38 0.96 2.84 1.28 -0.43 -0.96 -2.84 1.15 -0.39 2.24 6.63 -1.15 0.39 -0.96 -2.84 -1.28 0.43 0.96 2.84zm4.2 -2.94c0.06,0.25 0.16,0.41 0.29,0.49 0.13,0.07 0.29,0.09 0.47,0.05 0.18,-0.04 0.31,-0.13 0.4,-0.25 0.09,-0.13 0.1,-0.32 0.04,-0.56l-0.85 -3.68c-0.05,-0.25 -0.15,-0.41 -0.28,-0.49 -0.13,-0.07 -0.29,-0.09 -0.47,-0.05 -0.18,0.04 -0.32,0.13 -0.4,0.25 -0.09,0.13 -0.1,0.32 -0.04,0.56l0.84 3.68zm-1.99 -3.34c-0.12,-0.55 -0.07,-1.01 0.16,-1.38 0.24,-0.36 0.64,-0.61 1.21,-0.74 0.56,-0.13 1.03,-0.09 1.4,0.14 0.37,0.23 0.62,0.62 0.75,1.17l0.81 3.54c0.13,0.55 0.08,1.01 -0.15,1.38 -0.24,0.36 -0.64,0.61 -1.21,0.74 -0.56,0.13 -1.03,0.09 -1.4,-0.14 -0.37,-0.23 -0.62,-0.62 -0.75,-1.17l-0.82 -3.54zm7.95 1.78l0.18 -5.03 1.64 -0.21 0.88 6.94 -1.11 0.14 -0.64 -4.98 -0.18 5.09 -1.11 0.14 -1.5 -4.8 0.62 4.91 -1.03 0.13 -0.88 -6.94 1.64 -0.21 1.49 4.82zm4.6 1.57l-0.86 0.02 -0.18 -6.99 1.06 -0.03 0.1 4.19 1.74 -4.24 0.87 -0.02 0.17 7 -1.07 0.02 -0.1 -3.96 -1.73 4.01zm7.89 -4.91c-0.05,0.72 -0.35,1.17 -0.89,1.36 0.29,0.13 0.48,0.33 0.58,0.6 0.09,0.26 0.12,0.57 0.09,0.94l-0.05 0.62c-0.01,0.14 0,0.24 0.01,0.31 0.02,0.08 0.05,0.13 0.09,0.16 0.05,0.04 0.1,0.05 0.17,0.06 0.07,0.01 0.15,0.01 0.24,0.02l0.07 0 -0.08 1 -0.49 -0.04c-0.37,-0.02 -0.65,-0.13 -0.85,-0.34 -0.2,-0.2 -0.29,-0.46 -0.27,-0.76l0.09 -1.14c0.02,-0.33 -0.04,-0.56 -0.19,-0.71 -0.14,-0.14 -0.35,-0.22 -0.63,-0.25l-0.41 -0.03 -0.23 3.04 -1.18 -0.09 0.53 -6.97 1.18 0.09 -0.22 2.94 0.46 0.03c0.22,0.02 0.42,-0.02 0.6,-0.11 0.17,-0.1 0.27,-0.28 0.29,-0.56l0.09 -1.2c0.02,-0.3 0.15,-0.53 0.38,-0.71 0.23,-0.17 0.52,-0.24 0.89,-0.2l0.48 0.03 -0.07 1 -0.06 -0.01c-0.09,0 -0.17,-0.01 -0.24,-0.01 -0.07,-0.01 -0.13,0 -0.17,0.03 -0.05,0.02 -0.09,0.07 -0.12,0.14 -0.02,0.07 -0.04,0.17 -0.05,0.31l-0.04 0.45zm2.12 5.28l-0.86 -0.11 0.88 -6.94 1.05 0.13 -0.53 4.16 2.36 -3.92 0.86 0.1 -0.89 6.95 -1.06 -0.14 0.5 -3.94 -2.31 3.71zm6.86 1.3l-0.83 -0.23 1.91 -6.73 1.02 0.28 -1.15 4.03 2.92 -3.52 0.83 0.23 -1.91 6.74 -1.03 -0.3 1.09 -3.81 -2.85 3.31zm6.94 2.29l-1.08 -0.48 2.88 -6.38 3.42 1.54 -2.88 6.38 -1.11 -0.5 2.47 -5.47 -1.23 -0.55 -2.47 5.46zm8.03 -3.92c0.53,0.27 0.86,0.6 0.99,0.99 0.12,0.4 0.06,0.85 -0.2,1.35l-0.42 0.81c-0.25,0.5 -0.58,0.82 -0.97,0.95 -0.4,0.13 -0.86,0.06 -1.39,-0.22l-0.5 -0.25 -1.2 2.34 -1.05 -0.54 3.18 -6.23 1.56 0.8zm-0.95 0.63l-1.08 2.11 0.5 0.25c0.16,0.09 0.31,0.11 0.44,0.08 0.14,-0.04 0.26,-0.17 0.37,-0.4l0.48 -0.93c0.12,-0.23 0.15,-0.4 0.11,-0.53 -0.05,-0.13 -0.16,-0.24 -0.33,-0.33l-0.49 -0.25zm3.25 4.09l1.37 0.88 -0.54 0.84 -1.37 -0.88 -1.11 1.73 1.73 1.1 -0.54 0.85 -2.72 -1.75 3.77 -5.89 2.73 1.74 -0.54 0.85 -1.73 -1.11 -1.05 1.64zm1.31 5.75c-0.05,-0.03 -0.09,-0.05 -0.13,-0.05 -0.03,0 -0.08,0.02 -0.12,0.06 -0.05,0.04 -0.1,0.1 -0.17,0.18 -0.07,0.08 -0.15,0.18 -0.25,0.31l-0.78 -0.62 1.11 -1.41 0.2 0.15c0.34,0.13 0.69,0.1 1.04,-0.09 0.36,-0.19 0.74,-0.55 1.15,-1.07l2.3 -2.94 2.6 2.04 -3.71 4.72 0.39 0.31 -1.11 1.41 -0.78 -0.61c0.1,-0.13 0.18,-0.23 0.24,-0.31 0.06,-0.09 0.11,-0.16 0.14,-0.21 0.02,-0.05 0.03,-0.1 0.02,-0.14 -0.01,-0.04 -0.03,-0.07 -0.07,-0.1l-2.07 -1.63zm2.9 -1.85c-0.15,0.2 -0.32,0.39 -0.51,0.55 -0.18,0.18 -0.36,0.32 -0.55,0.44 -0.18,0.12 -0.35,0.21 -0.51,0.27 -0.16,0.06 -0.29,0.08 -0.4,0.06l1.38 1.08 3.09 -3.93 -0.8 -0.63 -1.7 2.16zm1.73 5.7l-0.86 -0.82 4.83 -5.07 2.71 2.59 -4.83 5.06 -0.87 -0.83 4.13 -4.34 -0.97 -0.93 -4.14 4.34zm9.04 -0.77c0.39,0.45 0.57,0.89 0.54,1.3 -0.03,0.41 -0.26,0.8 -0.68,1.17l-0.69 0.6c-0.43,0.37 -0.85,0.54 -1.26,0.51 -0.41,-0.02 -0.82,-0.26 -1.21,-0.72l-0.37 -0.42 -1.98 1.72 -0.78 -0.89 5.29 -4.59 1.14 1.32zm-1.12 0.23l-1.79 1.56 0.37 0.42c0.12,0.14 0.25,0.22 0.39,0.23 0.13,0.02 0.3,-0.06 0.49,-0.22l0.79 -0.69c0.19,-0.17 0.29,-0.32 0.29,-0.45 0.01,-0.14 -0.05,-0.28 -0.17,-0.42l-0.37 -0.43zm-1.93 7.04l-0.53 -0.68 5.5 -4.33 0.65 0.83 -3.29 2.59 4.43 -1.14 0.54 0.68 -5.5 4.33 -0.66 -0.84 3.11 -2.45 -4.25 1.01zm2.98 4.19l-0.64 -1 5.89 -3.78 0.64 1 -2.53 1.62 0.73 1.13 2.53 -1.62 0.65 1.02 -5.89 3.78 -0.65 -1.02 2.52 -1.62 -0.73 -1.13 -2.52 1.62zm2.26 3.85l-0.39 -0.77 6.22 -3.19 0.49 0.94 -3.73 1.91 4.57 -0.26 0.39 0.76 -6.22 3.2 -0.49 -0.96 3.53 -1.81 -4.37 0.18zm4.58 5.15l4.92 -1.07 0.6 1.53 -6.51 2.57 -0.41 -1.04 4.67 -1.84 -4.97 1.08 -0.41 -1.05 4.28 -2.64 -4.61 1.82 -0.38 -0.97 6.51 -2.56 0.61 1.53 -4.3 2.64zm0.39 7.92l-0.33 -1.15 1.16 -0.54 -0.39 -1.4 -1.28 0.15 -0.3 -1.05 7.06 -0.75 0.48 1.67 -6.4 3.07zm1.39 -3.21l0.31 1.1 3.25 -1.51 -3.56 0.41zm5.51 2l0.65 3.61 -0.99 0.18 -0.21 -1.23 -5.91 1.06 -0.21 -1.17 5.91 -1.05 -0.22 -1.23 0.98 -0.17zm-1.94 6.39l0.21 1.61 -0.99 0.13 -0.21 -1.62 -2.03 0.26 0.26 2.04 -0.99 0.12 -0.41 -3.21 6.94 -0.88 0.41 3.21 -0.99 0.13 -0.26 -2.04 -1.94 0.25zm-0.37 5.65c-0.56,0.01 -1.04,0 -1.46,-0.05 -0.41,-0.05 -0.75,-0.15 -1.02,-0.3 -0.27,-0.15 -0.47,-0.36 -0.6,-0.64 -0.14,-0.27 -0.21,-0.62 -0.22,-1.06l0 -0.13 1 -0.02 0 0.14c0,0.22 0.06,0.39 0.17,0.52 0.11,0.14 0.27,0.24 0.46,0.3 0.2,0.07 0.44,0.11 0.72,0.13 0.28,0.01 0.6,0.02 0.94,0.01l3.73 -0.1 0.08 3.29 -6.99 0.18 -0.03 -1.19 5.99 -0.15 -0.02 -1 -2.75 0.07zm0.85 4.81l-0.05 0.71c-0.05,0.6 -0.23,1.03 -0.54,1.3 -0.32,0.27 -0.75,0.38 -1.32,0.34l-0.69 -0.06c-0.56,-0.04 -0.98,-0.22 -1.25,-0.53 -0.27,-0.31 -0.38,-0.77 -0.34,-1.36l0.15 -1.9 6.97 0.53 -0.09 1.19 -2.84 -0.22zm-3.19 0.47c-0.01,0.19 0.02,0.34 0.11,0.44 0.09,0.11 0.26,0.18 0.5,0.19l0.83 0.07c0.25,0.02 0.42,-0.02 0.52,-0.11 0.11,-0.1 0.17,-0.24 0.18,-0.42l0.06 -0.71 -2.15 -0.17 -0.05 0.71zm0.91 6.34l-0.92 -0.12c-0.57,-0.07 -0.98,-0.27 -1.24,-0.61 -0.26,-0.33 -0.35,-0.79 -0.28,-1.36 0.08,-0.58 0.28,-1 0.62,-1.26 0.34,-0.26 0.79,-0.35 1.35,-0.28l3.61 0.46c0.56,0.07 0.98,0.28 1.24,0.61 0.26,0.34 0.36,0.79 0.28,1.37 -0.07,0.58 -0.28,1 -0.61,1.25 -0.34,0.26 -0.79,0.35 -1.35,0.28l-0.68 -0.08 0.14 -1.12 0.75 0.1c0.25,0.03 0.43,0 0.55,-0.1 0.12,-0.1 0.19,-0.24 0.21,-0.42 0.02,-0.19 -0.01,-0.34 -0.1,-0.47 -0.09,-0.12 -0.26,-0.2 -0.51,-0.23l-3.75 -0.48c-0.26,-0.03 -0.44,0 -0.55,0.1 -0.12,0.1 -0.18,0.24 -0.21,0.43 -0.02,0.18 0.01,0.33 0.09,0.46 0.09,0.12 0.26,0.2 0.51,0.23l0.99 0.13 -0.14 1.11zm4.05 2.07l-0.83 3.57 -0.97 -0.22 0.28 -1.21 -5.85 -1.35 0.27 -1.16 5.84 1.35 0.28 -1.21 0.98 0.23zm-1.79 6.81c-0.2,0.58 -0.47,0.96 -0.81,1.14 -0.34,0.18 -0.77,0.18 -1.28,0.01l-0.24 -0.08c-0.34,-0.12 -0.6,-0.27 -0.78,-0.46 -0.18,-0.19 -0.29,-0.43 -0.31,-0.72 -0.21,0.27 -0.46,0.43 -0.74,0.47 -0.29,0.04 -0.61,0.01 -0.96,-0.11l-0.54 -0.19c-0.51,-0.17 -0.85,-0.44 -1.03,-0.82 -0.17,-0.38 -0.16,-0.85 0.03,-1.42l0.6 -1.76 6.63 2.24 -0.57 1.7zm-3.45 -1.81l-2.04 -0.69 -0.22 0.64c-0.06,0.2 -0.06,0.36 0,0.49 0.06,0.13 0.21,0.24 0.46,0.32l0.58 0.19c0.3,0.11 0.53,0.12 0.69,0.05 0.15,-0.07 0.27,-0.24 0.36,-0.5l0.17 -0.5zm2.69 0.91l-1.75 -0.59 -0.15 0.44c-0.07,0.21 -0.07,0.39 -0.01,0.55 0.06,0.15 0.22,0.27 0.49,0.36l0.36 0.13c0.24,0.08 0.43,0.09 0.57,0.04 0.14,-0.06 0.24,-0.19 0.31,-0.38l0.18 -0.55zm-8.22 4.91l0.44 -1.12 1.25 0.28 0.54 -1.35 -1.11 -0.66 0.4 -1.02 6.07 3.7 -0.64 1.61 -6.95 -1.44zm3.06 -1.71l-0.42 1.07 3.5 0.77 -3.08 -1.84z"/>
  <polygon class="fil4 str6" points="65.72,149.12 54.16,155.8 42.59,149.12 42.59,135.77 54.16,129.09 65.72,135.77 "/>
  <polygon class="fil4 str9" points="98.25,154.11 81.5,163.52 64.74,154.11 64.74,135.27 81.5,125.86 98.25,135.27 "/>
  <g id="_2529302152576">
   <line class="fil5 str10" x1="82.68" y1="19.12" x2="82.68" y2= "19.12" />
  </g>
  <g id="_2529302151072">
   <line class="fil5 str10" x1="82.68" y1="19.12" x2="82.68" y2= "19.12" />
  </g>
  <rect class="fil4" x="76.84" y="114.73" width="11.49" height="1.56"/>
  <path class="fil9" d="M68.9 147.02c0,0.25 0.06,0.42 0.19,0.53 0.12,0.1 0.3,0.15 0.51,0.15 0.21,0 0.38,-0.05 0.51,-0.15 0.13,-0.11 0.19,-0.28 0.19,-0.53l0 -3.75c0,-0.25 -0.06,-0.42 -0.19,-0.53 -0.13,-0.1 -0.3,-0.15 -0.51,-0.15 -0.21,0 -0.39,0.05 -0.51,0.15 -0.13,0.11 -0.19,0.28 -0.19,0.53l0 3.75zm-1.36 -3.68c0,-0.56 0.17,-0.99 0.53,-1.29 0.35,-0.3 0.86,-0.45 1.53,-0.45 0.67,0 1.18,0.15 1.53,0.45 0.35,0.3 0.53,0.73 0.53,1.29l0 3.61c0,0.56 -0.18,0.99 -0.53,1.29 -0.35,0.3 -0.86,0.45 -1.53,0.45 -0.67,0 -1.18,-0.15 -1.53,-0.45 -0.36,-0.3 -0.53,-0.73 -0.53,-1.29l0 -3.61zm14.29 5.27l-1.37 0 -0.24 -1.26 -1.66 0 -0.24 1.26 -1.24 0 1.38 -6.93 1.99 0 1.38 6.93zm-3.1 -2.2l1.31 0 -0.66 -3.5 -0.65 3.5zm6.44 -3.14c0,-0.25 -0.06,-0.42 -0.19,-0.53 -0.13,-0.1 -0.3,-0.15 -0.51,-0.15 -0.22,0 -0.39,0.05 -0.52,0.15 -0.12,0.11 -0.19,0.28 -0.19,0.53l0 0.75 -1.28 0 0 -0.68c0,-0.56 0.17,-0.99 0.51,-1.29 0.34,-0.3 0.85,-0.45 1.51,-0.45 0.67,0 1.17,0.15 1.52,0.45 0.34,0.3 0.51,0.73 0.51,1.29l0 3.61c0,0.56 -0.17,0.99 -0.51,1.29 -0.35,0.3 -0.85,0.45 -1.52,0.45 -0.66,0 -1.17,-0.15 -1.51,-0.44 -0.34,-0.3 -0.51,-0.73 -0.51,-1.29l0 -0.92 1.28 0 0 0.99c0,0.25 0.07,0.42 0.19,0.52 0.13,0.1 0.3,0.15 0.52,0.15 0.21,0 0.38,-0.05 0.51,-0.15 0.13,-0.1 0.19,-0.27 0.19,-0.53l0 -1.43 -1.12 0 0 -0.99 1.12 0 0 -1.33zm7.27 5.34l-1.36 0 0 -6.93 4.28 0 0 6.93 -1.38 0 0 -5.94 -1.54 0 0 5.94zm-17.96 -1.45l0.67 -3.55 1.36 0 0 5 -0.92 0 0 -3.59 -0.68 3.59 -0.93 0 -0.73 -3.54 0 3.54 -0.85 0 0 -5 1.36 0 0.72 3.55zm13.5 1.45l-0.72 0 0 -5 0.88 0 0 2.99 1.52 -2.99 0.71 0 0 5 -0.88 0 0 -2.84 -1.51 2.84z"/>
  <rect class="fil10" x="81.71" y="61.97" width="0.21" height="52.7"/>
  <g id="_2529302148064">
   <path class="fil9" d="M77.23 89.8l-0.25 2.33c-0.02,0.19 0.04,0.37 0.17,0.52 0.13,0.14 0.32,0.22 0.52,0.22l7.34 0c0.19,0 0.38,-0.08 0.51,-0.22 0.13,-0.15 0.2,-0.33 0.18,-0.52l-0.26 -2.33 9.14 0c1.42,0 2.58,-1.12 2.58,-2.49l0 -17.2c0,-1.37 -1.16,-2.48 -2.58,-2.48l-27.04 0c-1.42,0 -2.58,1.11 -2.58,2.48l0 17.2c0,1.37 1.16,2.49 2.58,2.49l9.69 0zm7 1.73l-5.79 0 0.19 -1.73 5.41 0 0.19 1.73zm-16.69 -22.57l27.04 0c0.66,0 1.19,0.52 1.19,1.15l0 15.14 -29.42 0 0 -15.14c0,-0.63 0.53,-1.15 1.19,-1.15zm-1.19 18.35l0 -0.72 29.42 0 0 0.72c0,0.64 -0.53,1.15 -1.19,1.15l-27.04 0c-0.66,0 -1.19,-0.51 -1.19,-1.15z"/>
   <path class="fil9" d="M94.56 97.35c0.12,-0.2 0.13,-0.44 0.02,-0.65l-1.37 -2.54c-0.12,-0.22 -0.36,-0.36 -0.61,-0.36l-23.08 0c-0.26,0 -0.49,0.14 -0.61,0.36l-1.37 2.54c-0.11,0.21 -0.11,0.45 0.02,0.65 0.13,0.2 0.35,0.32 0.59,0.32l25.82 0c0.24,0 0.46,-0.12 0.59,-0.32zm-25.26 -1.01l0.65 -1.2 22.22 0 0.65 1.2 -23.52 0z"/>
   <path class="fil9" d="M95.77 98.88l-1.11 0c-1.61,0 -2.91,1.25 -2.91,2.8 0,0.37 0.31,0.67 0.69,0.67l5.55 0c0.38,0 0.69,-0.3 0.69,-0.67 0,-1.55 -1.3,-2.8 -2.91,-2.8zm-2.47 2.13c0.25,-0.47 0.77,-0.8 1.36,-0.8l1.11 0c0.59,0 1.11,0.33 1.36,0.8l-3.83 0z"/>
  </g>
 </g>
</svg>
